<svg width="1920" height="87" viewBox="0 0 1920 87" fill="none" xmlns="http://www.w3.org/2000/svg">
<path fill-rule="evenodd" clip-rule="evenodd" d="M197.276 0H0V78.4512V87H0.0192871L0 78.4512C3.51794 76.4116 6.0144 74.4297 6.0144 74.4297C11.2568 70.186 15.8846 64.8018 19.9326 58.4341C24.4991 51.248 28.2898 43.5361 32.0229 35.8628C36.451 26.7529 41.9662 18.5645 49.3094 11.5249C60.5701 0.73291 74.0236 -1.34863 88.7178 0.970703C101.645 3.01025 111.366 9.68896 116.812 21.6333C122.096 33.228 120.698 52.9727 106.488 62.167C96.7216 68.4849 81.651 66.9829 75.6136 58.3457C73.7125 55.6226 72.4835 52.0854 72.0303 48.7749C71.097 41.9502 76.2972 35.4941 82.4691 34.9526C89.267 34.3574 93.7181 38.5356 94.7589 47.9106C95.4661 47.1157 96.1558 46.4346 96.7892 45.8086C98.0101 44.6025 99.0222 43.603 99.5482 42.3916C103.116 34.2036 98.4844 25.2168 89.5703 22.5127C75.3447 18.1958 60.4126 27.9512 57.4707 43.4785C53.776 63.0005 65.4323 80.1406 85.3418 83.9199C100.389 86.7773 113.37 83.8164 124.101 75.8242C124.099 75.8086 124.098 75.792 124.097 75.7754C124.096 75.7593 124.095 75.7432 124.093 75.728C127.369 73.293 130.357 70.4048 132.946 67.0752C137.432 61.3047 141.072 54.8794 144.714 48.4517C146.473 45.3477 148.232 42.2432 150.086 39.2114C151.466 36.9585 152.789 34.6567 154.112 32.3545C157.313 26.7847 160.517 21.2104 164.531 16.3027C173.927 4.81055 184.929 0.0273438 197.276 0ZM197.49 0C203.024 0.012207 208.828 0.975586 214.877 2.71436C226.683 6.10986 234.522 14.4438 237.978 26.311C242.034 40.2334 237.026 54.6084 225.9 62.2285C215.776 69.1606 200.237 66.6758 194.061 57.1318C189.983 50.8257 190.658 42.2534 195.605 38.021C198.881 35.2212 202.622 34.0806 206.774 35.5747C211.071 37.1226 213.375 40.3599 213.813 44.9189C213.863 45.4336 213.971 45.9443 215.031 47.231C215.463 46.7114 215.947 46.2124 216.43 45.7134C217.477 44.6338 218.523 43.5547 219.048 42.2651C222.478 33.8154 217.512 24.7827 208.371 22.3667C194.007 18.5723 179.394 28.6807 176.886 44.3506C173.357 66.3994 187.563 82.4224 209.589 84.7456C231.772 87.0845 247.96 76.6997 259.509 58.5259C264.079 51.3403 267.87 43.6284 271.603 35.9551C276.031 26.8486 281.546 18.6567 288.889 11.6172C300.15 0.825195 313.6 -1.25684 328.298 1.06299C341.225 3.10254 350.946 9.78125 356.392 21.7256C361.676 33.3203 360.278 53.0649 346.068 62.2593C336.301 68.5767 321.227 67.0752 315.193 58.4375C313.292 55.7148 312.063 52.1777 311.61 48.8667C310.677 42.042 315.877 35.5859 322.049 35.0444C328.847 34.4492 333.298 38.6279 334.339 48.0029C335.046 47.208 335.736 46.5269 336.369 45.9009C337.59 44.6948 338.602 43.6953 339.128 42.4839C342.696 34.292 338.064 25.3086 329.15 22.605C314.925 18.2881 299.992 28.0435 297.051 43.5708C293.356 63.0923 305.012 80.2329 324.922 84.0122C346.275 88.064 363.577 80.6479 376.005 63.3574C381.094 56.2808 385.124 48.4268 389.144 40.5894C390.437 38.0703 391.728 35.5527 393.054 33.063C400.128 19.7822 408.796 7.80322 423.483 2.63379C439.487 -2.99658 462.419 -0.000976562 473.649 16.4482C482.666 29.6602 480.738 49.7578 468.936 60.0161C461.048 66.8716 449.249 68.1157 440.113 63.0503C433.491 59.3784 429.935 50.5068 432.209 43.3442C433.887 38.0674 438.999 34.6182 444.499 35.0562C449.626 35.4673 453.009 38.9121 454.039 44.7842C454.15 45.4219 454.223 46.0669 455.337 47.3345C455.774 46.7451 456.271 46.1748 456.768 45.6045C457.851 44.3623 458.934 43.1196 459.4 41.6772C462.108 33.3008 457.799 25.3892 449.411 22.6279C437.451 18.6914 424.382 25.1743 419.009 37.7061C410.39 57.8076 422.553 79.3115 445.236 84.085C465.679 88.3867 485.85 79.6836 498.375 60.2505C502.336 54.1011 505.671 47.5493 509.006 40.999C510.46 38.144 511.913 35.2891 513.418 32.4678C519.759 20.5771 527.706 10.0308 540.091 3.98975C554.874 -3.21924 582.81 -1.32178 594.528 17.6772C602.048 29.8638 601.207 52.4961 586.628 61.8599C578.371 67.1636 569.779 67.5283 561.076 63.4995C554.298 60.3579 550.607 52.4692 551.867 45.084C552.854 39.3115 557.904 34.9985 563.623 35.0483C569.349 35.0986 573.059 38.6973 574.004 45.0991C574.054 45.4258 574.136 45.7461 574.243 46.1636C574.301 46.3892 574.366 46.6436 574.438 46.9429C579.903 44.481 581.843 37.4795 579.162 31.1851C576.278 24.4141 567.924 20.4194 559.26 21.668C548.218 23.2617 538.655 33.0513 537.011 44.5156C533.658 67.874 549.359 82.7642 569.96 84.7764C591.943 86.9233 608.12 76.8535 619.519 58.7065C624.181 51.2866 628.094 43.3696 631.987 35.4922L632.362 34.7334C637.969 23.3921 645.351 13.6797 655.812 6.33984C669.688 -3.396 700.92 -2.4165 713.387 15.9067C722.281 28.9766 721.202 48.4023 710.145 59.0674C702.418 66.5181 690.681 68.3154 681.172 63.4956C674.501 60.1162 670.664 52.4116 671.997 45.0801C673.099 39.0195 678.211 34.7681 684.098 35.0103C689.636 35.2407 693.358 39.1348 694.142 45.5063C694.169 45.7329 694.222 45.9565 694.279 46.1802C694.318 46.3325 694.359 46.4854 694.395 46.6392C699.292 45.3491 701.719 39.1001 699.833 32.8018C697.456 24.8594 688.511 20.1968 678.66 21.7603C668.252 23.4116 659.038 33.0591 657.203 43.9819C653.205 67.7437 669.996 83.1211 690.673 84.8379C713.118 86.7007 729.075 75.897 740.413 57.4775C744.264 51.2197 747.542 44.6025 750.813 37.999C751.395 36.8247 751.976 35.6509 752.561 34.48C758.898 21.7754 766.955 10.4917 780.032 4.1665C797.261 -4.16406 827.034 -0.757324 836.923 22.0518C844.159 38.7393 836.624 59.106 820.919 64.8628C808.626 69.3716 794.922 63.085 792.111 51.6475C789.884 42.5913 796.144 34.3804 804.747 35.0752C810.104 35.5093 813.119 39.0312 815.001 48.0645C815.634 47.2334 816.268 46.5044 816.857 45.8271C818.015 44.4971 819 43.3652 819.46 42.0498C823.051 31.7646 816.242 22.5552 804.578 21.6025C792.902 20.6499 782.176 28.2622 778.27 40.2715C772.67 57.5044 780.996 74.9023 798.125 81.7578C817.578 89.5425 839.573 83.6206 853.814 66.7485C862.091 56.9438 867.51 45.4717 872.925 33.9883C878.033 23.1582 885.345 14.1597 894.989 6.96631C909.107 -3.56494 940.669 -2.55859 953.343 15.5923C963.459 30.0825 961.086 51.1289 947.532 61.3682C937.481 68.9609 921.7 67.3403 915.068 58.0151C911.842 53.4795 910.95 48.4443 912.563 43.1675C914.207 37.7944 919.465 34.5337 924.965 35.0791C930.365 35.6133 933.36 39.2192 934.731 48.0142C935.395 47.2329 936.053 46.5522 936.664 45.9209C937.866 44.6772 938.885 43.623 939.402 42.3647C942.532 34.7642 939.091 26.7681 931.563 23.373C919.488 17.9272 905.071 24.333 899.352 37.6831C891.886 55.1157 899.859 74.2915 917.86 81.604C928.905 86.0898 939.924 86.4126 950.77 82.5874C951.115 82.3569 951.507 82.1611 951.964 82.019C952.426 81.8779 952.884 81.7153 953.34 81.5435C953.604 81.4434 953.868 81.3398 954.13 81.2354C954.317 81.1543 954.503 81.0771 954.689 81C954.979 80.8804 955.269 80.7607 955.559 80.625C961.132 78.1245 965.825 74.4336 965.825 74.4336C971.067 70.1899 975.695 64.8052 979.743 58.4375C984.31 51.252 988.1 43.54 991.833 35.8667C996.262 26.7568 1001.78 18.5684 1009.12 11.5288C1020.38 0.736816 1033.83 -1.34473 1048.53 0.974609C1061.45 3.01416 1071.18 9.69287 1076.62 21.6372C1081.91 33.2319 1080.51 52.9766 1066.3 62.1709C1056.53 68.4883 1041.46 66.9868 1035.42 58.3491C1033.52 55.6265 1032.29 52.0894 1031.84 48.7783C1030.91 41.9536 1036.11 35.498 1042.28 34.9561C1049.08 34.3608 1053.53 38.5396 1054.57 47.9146C1055.28 47.1191 1055.97 46.438 1056.6 45.8125C1057.82 44.6064 1058.83 43.6069 1059.36 42.3955C1062.93 34.2075 1058.29 25.2202 1049.38 22.5166C1035.15 18.1997 1020.22 27.9551 1017.28 43.4824C1013.59 63.0039 1025.24 80.1445 1045.15 83.9238C1060.2 86.7812 1073.18 83.8203 1083.91 75.8276C1083.91 75.7969 1083.91 75.7627 1083.9 75.7319C1087.18 73.2969 1090.17 70.4087 1092.76 67.0791C1097.24 61.3091 1100.88 54.8848 1104.52 48.458C1106.28 45.353 1108.04 42.2476 1109.9 39.2153C1111.28 36.9619 1112.6 34.6602 1113.92 32.3574C1117.12 26.7881 1120.33 21.2139 1124.34 16.3066C1138 -0.396484 1155.05 -2.92725 1174.69 2.71826C1186.49 6.11328 1194.33 14.4478 1197.79 26.3149C1201.84 40.2373 1196.84 54.6123 1185.71 62.2324C1175.59 69.1646 1160.05 66.6797 1153.87 57.1357C1149.79 50.8296 1150.47 42.2573 1155.42 38.0249C1158.69 35.2251 1162.43 34.0845 1166.58 35.5786C1170.88 37.1265 1173.19 40.3638 1173.62 44.9229C1173.67 45.4375 1173.78 45.9482 1174.84 47.2349C1175.27 46.7183 1175.75 46.2222 1176.23 45.7261C1177.28 44.6436 1178.33 43.5615 1178.86 42.2686C1182.29 33.8193 1177.32 24.7866 1168.18 22.3706C1153.82 18.5762 1139.2 28.6846 1136.7 44.354C1133.17 66.4028 1147.37 82.4263 1169.4 84.7495C1191.59 87.0884 1207.77 76.7036 1219.32 58.5298C1223.89 51.3442 1227.68 43.6323 1231.41 35.9585C1235.84 26.8525 1241.36 18.6606 1248.7 11.6211C1259.96 0.828613 1273.41 -1.25293 1288.11 1.06689C1301.03 3.10645 1310.76 9.78516 1316.2 21.7295C1321.49 33.3242 1320.09 53.0684 1305.88 62.2627C1296.11 68.5806 1281.04 67.0791 1275 58.4414C1273.1 55.7188 1271.87 52.1812 1271.42 48.8706C1270.49 42.0459 1275.69 35.5898 1281.86 35.0483C1288.66 34.4531 1293.11 38.6318 1294.15 48.0068C1294.86 47.2124 1295.54 46.5312 1296.18 45.9058C1297.4 44.6992 1298.41 43.6992 1298.94 42.4878C1302.51 34.2959 1297.87 25.3125 1288.96 22.6089C1274.73 18.292 1259.8 28.0469 1256.86 43.5747C1253.17 63.0962 1264.82 80.2368 1284.73 84.0161C1306.09 88.0679 1323.39 80.6519 1335.81 63.3613C1340.9 56.2812 1344.94 48.4238 1348.96 40.583C1350.25 38.0674 1351.54 35.5532 1352.86 33.0669C1359.94 19.7861 1368.61 7.80713 1383.29 2.6377C1399.3 -2.99268 1422.23 0.00292969 1433.46 16.4521C1442.48 29.6641 1440.55 49.7617 1428.75 60.02C1420.86 66.8755 1409.06 68.1196 1399.92 63.0542C1393.3 59.3823 1389.75 50.5107 1392.02 43.3481C1393.7 38.0713 1398.81 34.6221 1404.31 35.0601C1409.43 35.4712 1412.82 38.916 1413.85 44.7881L1413.86 44.8657C1413.97 45.4795 1414.08 46.1226 1415.15 47.3384C1415.58 46.749 1416.08 46.1787 1416.58 45.6084C1417.66 44.3657 1418.74 43.1235 1419.21 41.6812C1421.92 33.3047 1417.61 25.3931 1409.22 22.6318C1397.26 18.6953 1384.19 25.1782 1378.82 37.71C1370.2 57.8115 1382.36 79.3149 1405.05 84.0889C1425.49 88.3906 1445.66 79.6875 1458.18 60.2544C1462.15 54.105 1465.48 47.5527 1468.82 41.002C1470.27 38.147 1471.72 35.2925 1473.23 32.4717C1479.57 20.5811 1487.51 10.0347 1499.9 3.99365C1514.68 -3.21533 1542.62 -1.31787 1554.34 17.6812C1561.86 29.8677 1561.02 52.5 1546.44 61.8633C1538.18 67.1675 1529.59 67.5322 1520.89 63.5034C1514.11 60.3618 1510.42 52.4731 1511.68 45.0879C1512.66 39.3154 1517.71 35.0024 1523.43 35.0522C1529.16 35.1021 1532.87 38.7007 1533.81 45.103C1533.89 45.6064 1534.04 46.0942 1534.24 46.9468C1539.71 44.4849 1541.65 37.4834 1538.97 31.1885C1536.08 24.418 1527.73 20.4233 1519.06 21.6719C1508.02 23.2656 1498.46 33.0552 1496.82 44.5195C1493.46 67.8779 1509.16 82.7681 1529.77 84.7803C1551.75 86.9272 1567.93 76.8574 1579.32 58.7104C1583.99 51.2896 1587.9 43.3716 1591.8 35.4932L1592.17 34.7373C1597.78 23.396 1605.16 13.6831 1615.62 6.34375C1629.49 -3.39209 1660.73 -2.4126 1673.2 15.9106C1682.09 28.9805 1681.01 48.4062 1669.95 59.0713C1662.23 66.522 1650.49 68.3193 1640.98 63.4995C1634.31 60.1196 1630.47 52.4155 1631.81 45.084C1632.91 39.0234 1638.02 34.772 1643.91 35.0137C1649.45 35.2441 1653.17 39.1387 1653.95 45.5103C1654 45.8906 1654.12 46.2632 1654.2 46.6431C1659.1 45.3525 1661.53 39.104 1659.64 32.8057C1657.27 24.8633 1648.32 20.2007 1638.47 21.7637C1628.06 23.4155 1618.85 33.063 1617.01 43.9854C1613.02 67.7471 1629.8 83.125 1650.49 84.8418C1672.93 86.7046 1688.89 75.9009 1700.23 57.4814C1704.08 51.2251 1707.35 44.6089 1710.62 38.0063C1711.21 36.8311 1711.79 35.6562 1712.37 34.4839C1718.71 21.7793 1726.77 10.4956 1739.85 4.16992C1757.08 -4.16016 1786.85 -0.753418 1796.74 22.0557C1803.98 38.7432 1796.44 59.1099 1780.74 64.8667C1768.45 69.3755 1754.74 63.0884 1751.93 51.6514C1749.7 42.5952 1755.96 34.3843 1764.56 35.0791C1769.92 35.5132 1772.94 39.0352 1774.82 48.0679C1775.45 47.2373 1776.08 46.5088 1776.67 45.8315C1777.83 44.5015 1778.82 43.3696 1779.28 42.0537C1782.87 31.7686 1776.06 22.5591 1764.39 21.6064C1752.72 20.6538 1741.99 28.2661 1738.09 40.2754C1732.49 57.5083 1740.81 74.9062 1757.94 81.7617C1777.4 89.5464 1799.39 83.6245 1813.63 66.7524C1821.91 56.9478 1827.33 45.4756 1832.75 33.9922C1837.85 23.1616 1845.17 14.1636 1854.81 6.96973C1868.93 -3.56104 1900.49 -2.55469 1913.16 15.5957C1923.28 30.0864 1920.91 51.1328 1907.36 61.3721C1897.31 68.9648 1881.53 67.3442 1874.89 58.019C1871.67 53.4834 1870.77 48.4482 1872.39 43.1714C1874.03 37.7983 1879.29 34.5376 1884.79 35.083C1890.19 35.6167 1893.19 39.2231 1894.56 48.0181C1896.53 45.6982 1898.45 44.2661 1899.23 42.3687C1902.36 34.7681 1898.92 26.772 1891.39 23.377C1879.31 17.9312 1864.9 24.3369 1859.18 37.687C1851.71 55.1191 1859.69 74.2954 1877.68 81.6079C1890.6 86.854 1903.48 86.4546 1916.09 80.3291C1916.87 79.9478 1917.66 79.5771 1918.74 79.0693L1920 78.478V0H197.49ZM29.4843 79.0425C29.4766 82.2954 32.3417 85.2642 35.5563 85.3296C38.4712 85.3911 41.3363 82.3452 41.2672 79.2651C41.1981 76.1812 38.7401 73.6426 35.7175 73.5312C32.6221 73.416 29.4919 76.1851 29.4843 79.0425ZM149.088 79.3726C149.211 82.6489 152.256 85.606 155.317 85.4331C158.179 85.2681 160.909 82.084 160.767 79.0811C160.614 75.9697 157.733 73.4312 154.591 73.6387C151.6 73.8384 148.98 76.5654 149.088 79.3726ZM269.064 79.127C269.056 82.3799 271.922 85.3486 275.136 85.4141C278.047 85.4756 280.912 82.4336 280.843 79.3496C280.778 76.2656 278.32 73.7271 275.297 73.6157C272.202 73.5005 269.072 76.2695 269.064 79.127ZM389.232 79.3228C389.313 82.5952 391.898 85.1528 395.124 85.145C398.327 85.1411 400.989 82.4336 400.923 79.2422C400.862 76.2847 398.208 73.6465 395.235 73.5967C392.071 73.5425 389.159 76.3193 389.232 79.3228ZM509.447 79.749C509.578 82.937 511.921 85.1372 515.177 85.1411C518.465 85.1411 520.977 82.5645 520.9 79.2769C520.819 75.9429 518.292 73.5503 514.928 73.627C511.763 73.7002 509.309 76.4424 509.447 79.749ZM629.281 78.9312C629.105 82.1343 631.905 85.145 635.154 85.2451C638.276 85.3408 640.957 82.687 640.969 79.4805C640.988 76.2656 638.407 73.6235 635.227 73.604C632.308 73.585 629.435 76.1543 629.281 78.9312ZM749.435 79.0234C749.335 82.4492 751.889 85.1143 755.326 85.1646C758.441 85.2104 761.179 82.5181 761.167 79.4229C761.152 76.3579 758.341 73.5928 755.241 73.6006C752.261 73.6079 749.519 76.1694 749.435 79.0234ZM869.587 79.3652C869.649 82.668 872.218 85.2104 875.444 85.1719C878.651 85.1338 881.34 82.3916 881.228 79.269C881.121 76.0967 878.329 73.5425 875.106 73.6694C872.022 73.7925 869.534 76.3618 869.587 79.3652ZM989.287 79.0425C989.28 82.2954 992.145 85.2642 995.359 85.3296C998.27 85.3911 1001.14 82.3452 1001.07 79.2651C1001 76.1812 998.543 73.6426 995.521 73.5312C992.425 73.416 989.295 76.1851 989.287 79.0425ZM1108.89 79.3726C1109.01 82.6489 1112.05 85.606 1115.12 85.4331C1117.98 85.2681 1120.71 82.084 1120.57 79.0811C1120.41 75.9697 1117.53 73.4312 1114.39 73.6387C1111.4 73.8384 1108.78 76.5654 1108.89 79.3726ZM1228.86 79.127C1228.85 82.3799 1231.72 85.3486 1234.93 85.4141C1237.85 85.4756 1240.71 82.4336 1240.65 79.3496C1240.58 76.2656 1238.12 73.7271 1235.1 73.6157C1232 73.5005 1228.87 76.2695 1228.86 79.127ZM1349.03 79.3228C1349.11 82.5952 1351.7 85.1528 1354.92 85.145C1358.13 85.1411 1360.79 82.4336 1360.72 79.2422C1360.66 76.2847 1358.01 73.6465 1355.03 73.5967C1351.87 73.5425 1348.96 76.3193 1349.03 79.3228ZM1469.24 79.749C1469.38 82.937 1471.72 85.1372 1474.98 85.1411C1478.26 85.1411 1480.77 82.5645 1480.7 79.2769C1480.62 75.9429 1478.09 73.5503 1474.73 73.627C1471.56 73.7002 1469.11 76.4424 1469.24 79.749ZM1589.08 78.9312C1588.9 82.1343 1591.71 85.145 1594.96 85.2451C1598.08 85.3408 1600.75 82.687 1600.77 79.4805C1600.79 76.2656 1598.21 73.6235 1595.03 73.604C1592.11 73.585 1589.24 76.1543 1589.08 78.9312ZM1709.23 79.0234C1709.13 82.4492 1711.69 85.1143 1715.12 85.1646C1718.24 85.2104 1720.98 82.5181 1720.97 79.4229C1720.95 76.3579 1718.14 73.5928 1715.04 73.6006C1712.06 73.6079 1709.32 76.1694 1709.23 79.0234ZM1829.39 79.3652C1829.45 82.668 1832.02 85.2104 1835.24 85.1719C1838.45 85.1338 1841.14 82.3916 1841.03 79.269C1840.92 76.0967 1838.13 73.5425 1834.9 73.6694C1831.82 73.7925 1829.33 76.3618 1829.39 79.3652Z" fill="#FDD5A5"/>
</svg>
