<svg width="519" height="519" viewBox="0 0 519 519" fill="none" xmlns="http://www.w3.org/2000/svg">
<g filter="url(#filter0_f_105_4629)">
<path d="M262.563 506.985C396.767 505.517 506.853 396.717 507 259.696C507.143 122.543 396.289 11.6284 258.687 12.0009C122.421 12.3697 12.1731 122.837 12 259.369C12.0226 396.228 123.012 508.509 262.563 506.985ZM259.519 20.3818C390.78 20.4232 497.37 126.009 498.604 257.175C499.858 390.387 392.567 498.401 259.895 498.596C128.276 498.792 21.8632 393.003 20.4407 262.187C18.9957 128.806 126.444 20.4759 259.519 20.3818Z" fill="#FDD5A5"/>
</g>
<g filter="url(#filter1_f_105_4629)">
<path d="M30.6309 263.911C31.6483 275.592 32.5414 287.295 34.0147 298.919C34.8173 305.241 36.5318 311.473 38.1559 317.659C39.0791 321.174 41.2457 322.054 44.7011 321.087C52.1808 318.999 59.6719 316.948 67.1403 314.826C70.6823 313.821 74.1867 312.692 77.5139 311.68C82.0507 325.885 87.4128 339.365 94.8172 352.099C91.5728 353.999 88.4491 355.828 85.1369 357.77C83.656 355.196 81.9867 352.686 80.7093 349.988C77.936 344.125 75.3322 338.179 72.7171 332.241C71.1157 328.606 69.3409 327.771 65.6368 329.08C60.1843 331.007 54.7318 332.93 49.2756 334.841C45.6017 336.128 44.377 338.683 45.9898 342.3C49.204 349.517 52.4258 356.735 55.8736 363.84C58.1458 368.525 60.531 373.21 63.3797 377.556C67.9241 384.495 72.8829 391.167 77.691 397.933C79.5751 400.582 82.0093 400.929 84.6018 398.912C87.9064 396.338 91.1923 393.741 94.4517 391.114C95.7404 390.076 96.9009 388.872 98.1896 387.833C100.462 386.001 102.791 384.236 105.097 382.448C107.309 380.732 109.528 379.024 111.83 377.244C121.194 389.041 131.609 399.1 143.128 408.161C140.769 411.258 138.595 414.107 135.984 417.535C128.708 410.747 121.744 404.3 114.845 397.79C112.403 395.487 110.022 395.265 107.584 397.527C103.186 401.606 98.8566 405.757 94.4818 409.866C91.7989 412.387 91.4824 414.355 94.0033 417.004C98.5702 421.806 103.186 426.593 108.126 431.003C112.354 434.778 116.989 438.112 121.578 441.461C127.004 445.423 132.559 449.213 138.087 453.036C140.167 454.477 142.265 455.911 144.462 457.157C147.367 458.809 150.02 457.962 151.64 455.113C153.129 452.502 154.723 449.947 156.17 447.309C158.638 442.804 161.016 438.243 163.457 433.724C165.059 430.759 166.713 427.823 168.394 424.779C181.435 431.782 194.88 437.645 209.429 441.34C208.419 444.87 207.428 448.347 206.342 452.137C201.704 450.801 197.31 449.766 193.086 448.261C188.24 446.533 183.56 444.343 178.771 442.443C175.979 441.333 174.083 442.029 172.84 444.633C170.003 450.552 167.218 456.498 164.497 462.47C163.672 464.284 163.77 466.214 165.745 467.242C169.588 469.244 173.383 471.554 177.479 472.83C190.026 476.736 202.665 480.375 215.363 483.762C219.851 484.958 224.603 485.207 229.249 485.741C232.682 486.136 234.946 484.706 235.206 482.147C235.96 474.738 236.653 467.321 237.392 459.907C237.81 455.689 238.266 451.471 238.718 447.109C253.632 448.723 268.185 448.626 282.971 446.793C283.457 450.522 283.924 454.097 284.407 457.804C283.261 457.924 282.406 458.064 281.543 458.097C272.899 458.466 264.255 458.809 255.611 459.174C252.427 459.309 250.678 461.074 250.531 464.25C250.252 470.35 249.977 476.454 249.698 482.554C249.585 485.045 250.607 486.659 252.981 487.382C254.021 487.698 255.166 487.754 256.263 487.781C268.92 488.048 281.52 487.235 293.993 485.112C302.26 483.709 310.471 481.944 318.644 480.07C322.28 479.238 323.297 476.905 322.295 473.462C319.266 463.053 316.247 452.641 313.229 442.225C313.082 441.717 312.984 441.194 312.875 440.742C326.858 436.065 340.424 430.883 353.115 423.293C355.044 426.563 356.909 429.724 358.921 433.133C354.433 435.496 350.16 437.905 345.748 440.023C341.328 442.146 336.735 443.903 332.284 445.969C329.681 447.181 328.991 449.175 329.944 451.869C331.975 457.608 334.018 463.347 336.09 469.07C337.3 472.416 340.028 473.669 343.25 472.205C350.956 468.705 358.635 465.146 366.284 461.522C368.21 460.611 369.981 459.377 371.812 458.282C377.498 454.876 383.267 451.599 388.836 448.009C392.556 445.611 395.996 442.785 399.546 440.129C401.535 438.639 401.935 435.797 400.397 433.803C398.328 431.112 396.226 428.448 394.078 425.825C389.82 420.628 385.513 415.477 381.244 410.287C380.441 409.313 379.593 408.323 379.043 407.205C378.798 406.712 378.998 405.625 379.409 405.241C382.521 402.325 385.86 399.642 388.889 396.646C394.108 391.491 399.199 386.207 404.248 380.886C405.97 379.073 407.413 376.992 409.086 374.896C412.146 377.199 415.029 379.37 418.051 381.643C416.291 383.871 414.791 386.012 413.043 387.927C408.178 393.252 403.189 398.468 398.291 403.762C396.218 406.005 396.203 407.864 398.242 410.043C402.507 414.596 406.799 419.123 411.14 423.605C413.638 426.183 415.575 426.254 418.307 423.771C420.696 421.599 422.968 419.292 425.165 416.929C429.408 412.357 433.858 407.932 437.679 403.025C442.864 396.36 447.574 389.323 452.416 382.395C454.319 379.671 456.135 376.879 457.805 374.008C459.805 370.561 458.95 367.829 455.547 365.936C447.597 361.51 439.665 357.047 431.688 352.667C429.777 351.617 427.724 350.827 425.606 349.86C432.607 336.527 438.549 323.138 442.084 308.526C445.777 309.584 449.315 310.6 453.023 311.661C451.497 316.692 450.216 321.509 448.569 326.198C447.05 330.525 445.102 334.702 443.414 338.969C442.212 342.006 442.917 343.888 445.758 345.216C451.354 347.835 457.047 350.247 462.556 353.032C465.718 354.631 468.092 353.465 469.636 350.221C471.238 346.864 472.873 343.474 473.966 339.937C477.425 328.749 480.892 317.554 483.842 306.227C485.308 300.586 485.764 294.67 486.461 288.853C486.97 284.616 485.372 282.839 481.231 282.489C475.3 281.985 469.358 281.56 463.43 280.988C458.249 280.491 453.083 279.84 448.113 279.279C448.369 271.893 448.844 264.848 448.795 257.811C448.742 250.714 448.173 243.621 447.819 236.324C451.252 235.895 454.767 235.458 458.426 235.003C458.569 235.895 458.75 236.58 458.78 237.268C459.138 245.502 459.508 253.736 459.805 261.973C459.922 265.179 461.478 267.196 464.286 267.335C470.552 267.644 476.822 267.93 483.092 268.171C486.265 268.291 488.108 266.602 488.421 263.418C488.488 262.711 488.477 261.992 488.488 261.277C488.771 244.557 486.725 228.053 483.797 211.646C483.119 207.841 481.996 204.097 480.82 200.409C479.912 197.56 477.9 196.251 475.703 196.86C467.074 199.242 458.468 201.711 449.857 204.157C447.005 204.966 444.164 205.809 441.492 206.584C437.035 192.333 431.624 178.877 424.234 166.206C427.524 164.295 430.655 162.473 433.964 160.55C435.735 163.693 437.664 166.699 439.182 169.902C441.722 175.26 444.013 180.739 446.387 186.177C447.924 189.703 449.722 190.538 453.298 189.289C458.829 187.355 464.353 185.402 469.881 183.456C473.31 182.248 474.58 179.753 473.209 176.37C471.012 170.948 468.845 165.495 466.298 160.234C463.581 154.62 460.755 149.005 457.401 143.76C452.209 135.639 446.549 127.815 441.029 119.909C439.593 117.851 436.952 117.538 434.947 119.04C432.931 120.549 430.949 122.103 428.99 123.691C422.968 128.572 416.977 133.494 410.94 138.356C409.787 139.285 408.476 140.015 407.146 140.9C397.884 129.392 387.559 119.221 375.938 110.174C378.278 107.088 380.445 104.228 382.657 101.312C384.545 102.678 386.278 103.69 387.714 105.019C393.362 110.231 398.931 115.533 404.504 120.827C406.55 122.769 409.199 122.908 411.257 120.997C415.654 116.906 420.037 112.801 424.381 108.658C427.4 105.779 427.497 103.792 424.634 100.778C421.977 97.9817 419.151 95.3438 416.404 92.6268C414.603 90.8469 412.945 88.8938 410.993 87.3058C406.648 83.7723 402.228 80.3178 397.703 77.0138C392.145 72.9609 386.463 69.0812 380.81 65.1601C378.858 63.8054 376.892 62.4582 374.827 61.2879C371.627 59.474 369.095 60.2455 367.328 63.4253C364.023 69.3635 360.738 75.3129 357.444 81.2548C355.198 85.3076 352.953 89.3604 350.669 93.4848C337.582 86.5381 324.176 80.5812 309.604 76.9837C310.663 73.3561 311.695 69.8338 312.754 66.2062C317.325 67.497 321.655 68.4829 325.811 69.958C330.51 71.625 335.05 73.7324 339.662 75.6478C343.156 77.0966 344.96 76.4268 346.569 73.0137C349.034 67.7905 351.464 62.5523 353.902 57.3178C355.779 53.2876 355.063 51.2592 350.956 49.4078C347.56 47.8762 344.196 46.1791 340.653 45.084C329.455 41.622 318.244 38.16 306.906 35.2022C301.337 33.7496 295.489 33.3093 289.746 32.5943C286.408 32.1766 284.139 33.6067 283.879 36C283.163 42.5402 282.481 49.0804 281.844 55.6282C281.347 60.7309 280.936 65.8449 280.469 71.2073C265.51 69.593 250.893 69.6984 236.08 71.5197C235.594 67.7717 235.131 64.2118 234.66 60.5654C235.496 60.445 235.956 60.3358 236.42 60.3133C245.222 59.9144 254.024 59.4891 262.827 59.1542C266.644 59.0112 268.388 57.4496 268.554 53.7279C268.825 47.6279 269.082 41.5242 269.402 35.428C269.515 33.2868 268.475 31.8719 266.64 31.187C265.344 30.7015 263.867 30.5398 262.465 30.5172C249.812 30.3102 237.207 31.1004 224.735 33.2492C216.629 34.6453 208.566 36.3386 200.543 38.1524C196.809 38.9991 195.761 41.3247 196.809 44.9185C199.797 55.1766 202.781 65.431 205.758 75.6929C205.95 76.3477 206.064 77.0288 206.18 77.5594C192.174 82.252 178.617 87.4752 165.944 95.0201C164.019 91.75 162.154 88.5778 160.126 85.1308C164.705 82.7713 169.083 80.393 173.571 78.2406C177.995 76.1182 182.573 74.3119 187.001 72.1895C189.491 70.9966 190.072 69.0549 189.122 66.4019C187.072 60.6707 185.019 54.9396 182.942 49.2159C181.767 45.9797 179.08 44.6513 176.009 46.0173C168.997 49.1256 162.014 52.3054 155.085 55.5943C152.375 56.8813 149.813 58.4957 147.228 60.0348C141.595 63.3877 135.909 66.654 130.407 70.2101C126.628 72.6524 123.116 75.5123 119.502 78.2105C117.539 79.6781 117.151 82.5417 118.685 84.5475C120.403 86.7978 122.178 89.0105 123.975 91.2044C128.934 97.2592 133.923 103.295 138.889 109.346C139.338 109.892 139.918 110.46 140.061 111.096C140.197 111.717 140.084 112.695 139.669 113.083C136.557 115.999 133.218 118.682 130.189 121.674C124.973 126.822 119.886 132.098 114.837 137.411C113.115 139.225 111.683 141.306 109.995 143.421C106.954 141.129 104.075 138.958 101.057 136.685C102.693 134.559 104.045 132.504 105.688 130.713C110.613 125.336 115.662 120.071 120.644 114.742C122.897 112.33 122.935 110.535 120.67 108.112C116.465 103.611 112.222 99.1482 107.942 94.7191C105.473 92.164 103.597 92.0248 100.959 94.3917C98.4421 96.6533 96.1247 99.1407 93.7357 101.542C91.6105 103.675 89.3345 105.685 87.4279 107.995C83.867 112.315 80.4191 116.741 77.1145 121.256C73.1014 126.739 69.2617 132.35 65.3881 137.934C63.9449 140.015 62.5131 142.115 61.2696 144.313C59.7397 147.018 60.06 150.368 61.8838 151.459C65.147 153.412 68.4516 155.297 71.7902 157.119C76.5794 159.734 81.4102 162.278 86.2334 164.829C88.5847 166.075 90.9586 167.271 93.4267 168.547C86.467 181.831 80.4757 195.276 76.9939 209.798C73.2371 208.714 69.7478 207.706 66.1304 206.66C67.5058 201.911 68.6212 197.301 70.1849 192.845C71.7826 188.296 73.8438 183.908 75.6525 179.43C76.9185 176.299 76.229 174.5 73.1617 173.051C67.7168 170.481 62.2606 167.934 56.7666 165.473C52.9382 163.757 51.073 164.63 49.268 168.453C43.5932 180.484 39.8854 193.191 36.6976 206.02C34.7947 213.678 33.7999 221.573 32.6092 229.392C31.9875 233.479 33.7924 235.485 37.7678 235.823C45.2814 236.459 52.7988 237.058 60.3087 237.761C63.911 238.1 67.4945 238.642 71.2551 239.112C69.7667 253.499 69.8646 267.633 71.5641 281.966C67.8035 282.418 64.2464 282.847 60.5838 283.287C60.4971 282.527 60.433 282.143 60.4142 281.756C60.0298 273.36 59.6116 264.968 59.28 256.573C59.1293 252.746 57.6936 251.117 53.8313 250.921C47.9606 250.624 42.0898 250.371 36.2153 250.146C32.6205 250.006 30.7892 251.666 30.6309 255.335C30.4952 258.199 30.386 261.077 30.6309 263.911ZM38.8906 259.358C42.7982 259.358 46.7359 259.358 50.975 259.358C51.024 260.137 51.0805 260.968 51.1295 261.796C51.6495 270.575 52.0791 279.366 52.7272 288.134C53.0399 292.36 55.4026 293.888 59.54 293.158C65.0076 292.194 70.4864 291.295 75.9766 290.448C79.2247 289.944 80.7319 288.145 80.1893 284.822C78.4447 274.139 78.0904 263.38 78.471 252.599C78.6557 247.376 79.1907 242.16 79.7484 236.964C80.1667 233.065 78.8516 231.199 74.9328 230.63C64.1861 229.072 53.4394 227.488 42.6927 225.908C42.3121 225.851 41.9429 225.731 41.6 225.648C41.6452 216.391 49.8483 185.786 55.0107 175.753C58.6582 177.33 62.3284 178.914 66.1644 180.57C64.5817 184.717 62.8333 188.691 61.5522 192.811C59.8188 198.396 58.3342 204.067 56.9588 209.749C56.3257 212.368 57.573 214.272 60.2371 214.942C66.3076 216.466 72.4081 217.896 78.5389 219.175C81.3913 219.77 83.0116 218.449 83.8971 215.42C85.6041 209.58 86.9682 203.608 89.1047 197.929C92.756 188.235 96.7766 178.673 102.176 169.766C104.234 166.368 103.691 164.6 100.307 162.519C93.0349 158.044 85.7812 153.54 78.4861 149.092C75.9916 147.572 73.4029 146.194 70.5994 144.606C79.8803 129.863 90.2427 116.233 102.252 104.187C105.455 107.103 108.42 109.805 111.144 112.285C108.657 115.138 106.438 117.693 104.2 120.237C101.901 122.848 99.5198 125.392 97.2966 128.064C95.3259 130.431 93.4606 132.892 91.667 135.398C89.6134 138.265 90.0053 140.17 92.8804 142.236C97.5641 145.6 102.233 148.99 106.943 152.317C110.165 154.593 111.736 154.07 114.234 151.004C118.681 145.555 123.112 140.045 128.052 135.059C134.055 129.005 140.581 123.469 146.874 117.708C147.808 116.854 148.747 116.003 149.625 115.092C151.234 113.433 151.388 111.615 150.035 109.722C147.318 105.929 144.624 102.125 141.858 98.3693C138.663 94.0342 135.362 89.7744 132.186 85.4243C131.172 84.0357 130.403 82.4628 129.412 80.792C143.407 70.8537 158.061 62.2211 174.178 55.7637C175.674 59.4854 177.136 63.1092 178.681 66.9476C177.471 67.5572 176.295 68.1442 175.123 68.735C169.264 71.689 163.405 74.6393 157.541 77.5933C155.706 78.519 153.792 79.3131 152.047 80.3855C148.897 82.3273 148.532 84.5927 150.503 87.6746C153.483 92.3371 156.366 97.0597 159.32 101.741C161.566 105.297 163.774 105.722 167.482 103.551C171.382 101.271 175.206 98.7945 179.314 96.9506C187.106 93.4509 195.034 90.2335 202.996 87.129C206 85.9586 209.278 85.5071 212.386 84.5851C215.567 83.6406 216.554 81.5483 215.774 78.376C213.035 67.2335 210.359 56.076 207.673 44.9599C212.793 42.2354 248.621 37.8664 258.523 38.7432C258.523 42.7095 258.523 46.7022 258.523 51.1125C256.816 51.1125 255.091 51.0259 253.38 51.1275C245.776 51.5829 238.168 51.9855 230.579 52.6177C225.285 53.0617 223.936 55.2256 224.98 60.4261C225.978 65.3972 226.811 70.402 227.674 75.3994C228.405 79.6442 229.788 80.6866 233.963 80.0581C250.083 77.6309 266.226 77.567 282.383 79.6743C286.317 80.1861 288.133 78.8239 288.721 74.8952C290.27 64.558 291.807 54.2208 293.363 43.8836C293.476 43.1197 293.669 42.3671 293.816 41.6483C302.927 41.701 334.587 50.2733 343.702 55.2105C342.119 58.887 340.522 62.605 338.86 66.4659C336.12 65.3332 333.634 64.0838 331.011 63.2597C324.217 61.126 317.382 59.1166 310.527 57.1824C307.151 56.2303 305.161 57.4232 304.302 60.8326C302.833 66.6691 301.465 72.5357 300.127 78.4062C299.551 80.9274 300.76 82.888 303.338 83.7083C306.209 84.6228 309.073 85.6125 312.008 86.2409C320.155 87.9794 327.608 91.4753 335.024 95.0615C340.216 97.5715 345.326 100.255 350.473 102.859C352.998 104.138 354.901 103.619 356.495 101.03C362.181 91.8065 367.825 82.553 373.489 73.3147C373.937 72.5846 374.416 71.8697 375.068 70.8536C377.106 72.2874 379.043 73.6044 380.927 74.9893C388.188 80.3291 395.525 85.5748 402.65 91.0915C406.324 93.9364 409.659 97.2328 413.069 100.413C415.662 102.829 415.553 102.896 413.032 105.339C410.929 107.378 408.97 109.561 407.135 111.48C401.55 106.558 396.275 101.831 390.905 97.214C388.69 95.3099 386.316 93.5789 383.927 91.8892C381.161 89.9362 379.224 90.2937 377.246 93.0069C373.802 97.7333 370.365 102.463 366.97 107.224C364.83 110.223 365.267 111.875 368.063 114.201C373.474 118.701 379.013 123.1 383.998 128.045C389.99 133.987 395.461 140.452 401.155 146.691C401.475 147.041 401.739 147.447 402.059 147.794C405.985 152.065 406.539 152.317 411.332 148.99C418.669 143.895 425.783 138.48 433.022 133.234C434.676 132.038 436.435 130.988 438.44 129.678C448.569 143.827 457.066 158.597 463.438 174.478C459.7 176.032 456.067 177.545 452.145 179.178C451.222 176.845 450.506 174.587 449.462 172.494C447.02 167.606 444.424 162.793 441.88 157.958C440.889 156.072 439.955 154.149 438.836 152.343C436.895 149.212 434.6 148.896 431.503 150.891C426.714 153.976 421.826 156.908 416.992 159.922C414.181 161.676 413.597 164.061 415.236 167C417.587 171.223 420.27 175.294 422.248 179.682C425.693 187.317 428.82 195.103 431.846 202.919C433.037 205.997 433.564 209.328 434.453 212.53C435.373 215.841 437.423 216.865 440.773 216.048C451.919 213.328 463.084 210.686 474.151 208.033C476.664 212.564 481.382 249.367 480.21 258.985C476.234 258.985 472.236 258.985 467.877 258.985C467.877 257.111 467.971 255.305 467.862 253.51C467.379 245.607 466.897 237.705 466.294 229.814C466.015 226.152 463.498 224.436 459.843 225.065C454.138 226.043 448.429 227.003 442.717 227.932C439.751 228.414 438.519 230.299 438.836 233.63C439.522 240.806 440.565 247.989 440.611 255.173C440.667 263.779 439.974 272.404 439.333 280.999C439.005 285.394 440.091 287.118 444.469 287.75C455.144 289.293 465.812 290.877 476.479 292.446C476.785 292.492 477.086 292.582 477.553 292.691C476.065 310.099 469.991 326.209 464.338 342.71C460.337 340.968 456.667 339.372 452.898 337.735C454.349 333.882 455.905 330.25 457.081 326.502C458.878 320.771 460.499 314.976 462.025 309.166C462.824 306.125 461.527 304.003 458.471 303.247C452.623 301.798 446.749 300.435 440.852 299.197C437.751 298.546 436.108 299.736 435.2 302.825C433.575 308.357 432.196 313.979 430.271 319.405C428.447 324.542 426.186 329.535 423.88 334.484C421.548 339.493 418.932 344.37 416.43 349.295C415.115 351.881 415.552 353.773 418.088 355.358C421.438 357.45 424.897 359.362 428.259 361.439C432.306 363.938 436.273 366.564 440.324 369.059C442.935 370.666 445.637 372.13 448.467 373.755C439.107 388.465 428.839 402.114 416.634 414.257C413.537 411.341 410.62 408.598 408.159 406.28C414.746 398.272 421.171 390.591 427.433 382.779C429.54 380.153 428.997 378.094 426.254 376.13C421.563 372.773 416.898 369.386 412.188 366.06C408.936 363.764 407.364 364.235 404.87 367.245C400.077 373.029 395.336 378.896 390.069 384.232C384.307 390.065 377.965 395.329 371.887 400.857C370.896 401.76 369.664 402.592 369.107 403.732C368.541 404.88 368.232 406.513 368.609 407.672C369.182 409.429 370.327 411.051 371.443 412.575C375.656 418.329 379.955 424.023 384.22 429.739C386.052 432.192 387.879 434.65 389.865 437.314C375.686 447.546 360.96 456.046 344.855 462.598C343.359 458.839 341.886 455.143 340.322 451.211C342.5 450.349 344.618 449.687 346.566 448.701C351.513 446.198 356.385 443.545 361.291 440.96C363.108 440.004 364.981 439.146 366.74 438.097C370.177 436.042 370.587 433.852 368.451 430.499C365.436 425.765 362.509 420.975 359.524 416.218C357.7 413.317 355.266 412.711 352.237 414.412C348.227 416.662 344.384 419.27 340.209 421.151C332.205 424.757 324.059 428.06 315.882 431.263C312.882 432.437 309.604 432.885 306.499 433.814C303.458 434.721 302.513 436.783 303.27 439.888C305.896 450.654 308.462 461.435 311.044 472.213C311.149 472.661 311.183 473.127 311.243 473.556C304.611 476.262 267.59 480.883 260.423 479.411C260.423 475.52 260.423 471.596 260.423 467.411C261.312 467.366 262.152 467.332 262.989 467.276C272.006 466.658 281.034 466.18 290.033 465.349C293.725 465.006 294.976 462.831 294.317 459.136C293.292 453.363 292.218 447.598 291.14 441.833C290.583 438.864 289.245 437.856 286.114 438.168C281.219 438.653 276.343 439.384 271.437 439.73C260.095 440.535 248.775 440.211 237.478 438.819C235.783 438.612 233.846 438.921 232.282 439.594C231.4 439.974 230.681 441.521 230.507 442.639C229.302 450.308 228.284 458.007 227.146 465.688C226.604 469.353 225.929 472.999 225.266 476.962C220.861 476.273 216.569 475.957 212.477 474.888C204.277 472.743 196.168 470.241 188.056 467.78C184.344 466.655 180.712 465.274 177.038 464.036C175.866 463.64 175.289 463.08 175.885 461.763C177.347 458.526 178.748 455.264 180.241 451.866C182.411 452.776 184.393 453.796 186.488 454.455C193.885 456.78 201.308 459.038 208.754 461.202C211.757 462.075 213.928 460.799 214.711 457.729C216.234 451.742 217.647 445.728 219.003 439.703C219.572 437.175 217.99 435.218 215.088 434.375C209.387 432.723 203.569 431.383 198.034 429.287C188.263 425.588 178.605 421.562 169.641 416.083C166.076 413.904 164.339 414.385 162.199 417.874C156.66 426.905 151.139 435.948 145.604 444.983C145.152 445.721 144.666 446.439 144.01 447.455C142.141 446.15 140.332 444.938 138.58 443.643C130.886 437.957 123.108 432.377 115.568 426.495C111.845 423.59 108.586 420.094 105.074 416.91C103.718 415.68 104.087 414.807 105.24 413.629C107.561 411.258 109.709 408.714 111.891 406.28C119.329 414.096 127.012 420.384 134.978 426.333C137.819 428.456 139.794 428.072 141.828 425.268C145.216 420.602 148.615 415.943 151.976 411.258C154.252 408.09 153.89 406.521 150.94 404.075C142.476 397.06 133.904 390.155 126.62 381.85C122.867 377.575 119.204 373.217 115.421 368.972C113.289 366.579 111.589 366.481 108.978 368.348C102.15 373.217 95.3221 378.083 88.5131 382.979C85.9696 384.808 83.4939 386.727 80.7281 388.796C70.5165 374.485 61.978 359.802 55.6249 343.835C59.3365 342.288 63.0104 340.753 66.9104 339.127C67.9015 341.585 68.6928 343.993 69.8119 346.236C72.1783 350.985 74.7142 355.651 77.1899 360.348C78.1809 362.229 79.1116 364.152 80.2232 365.958C82.1525 369.093 84.4699 369.413 87.556 367.415C92.3415 364.321 97.2288 361.394 102.063 358.379C104.871 356.63 105.47 354.214 103.823 351.301C101.6 347.369 99.0413 343.591 97.1949 339.493C93.6566 331.631 90.4122 323.635 87.2772 315.605C86.0789 312.53 85.5513 309.196 84.6696 305.994C83.6786 302.381 81.7606 301.452 78.0339 302.355C66.9594 305.045 55.8585 307.642 44.8254 310.265C42.1915 304.451 37.617 267.971 38.8906 259.358Z" fill="#FDD5A5"/>
</g>
<g filter="url(#filter2_f_105_4629)">
<path d="M259.826 428.95C352.511 428.736 430.9 353.265 428.913 255.408C427.104 166.296 354.053 88.9557 256.647 90.0615C167.232 91.077 85.5097 165.641 90.2461 268.407C94.1886 353.957 164.768 428.567 259.826 428.95ZM250.831 98.6783C348.895 94.0408 420.516 172.31 420.618 258.669C420.723 349.053 348.335 420.886 258.848 420.518C169.737 420.153 98.782 348.537 98.2854 259.327C99.1883 169.056 169.876 102.507 250.831 98.6783Z" fill="#FDD5A5"/>
</g>
<defs>
<filter id="filter0_f_105_4629" x="0.224065" y="0.224065" width="518.552" height="518.552" filterUnits="userSpaceOnUse" color-interpolation-filters="sRGB">
<feFlood flood-opacity="0" result="BackgroundImageFix"/>
<feBlend mode="normal" in="SourceGraphic" in2="BackgroundImageFix" result="shape"/>
<feGaussianBlur stdDeviation="5.88797" result="effect1_foregroundBlur_105_4629"/>
</filter>
<filter id="filter1_f_105_4629" x="18.7094" y="18.7094" width="481.581" height="480.897" filterUnits="userSpaceOnUse" color-interpolation-filters="sRGB">
<feFlood flood-opacity="0" result="BackgroundImageFix"/>
<feBlend mode="normal" in="SourceGraphic" in2="BackgroundImageFix" result="shape"/>
<feGaussianBlur stdDeviation="5.88797" result="effect1_foregroundBlur_105_4629"/>
</filter>
<filter id="filter2_f_105_4629" x="78.2739" y="78.2739" width="362.452" height="362.452" filterUnits="userSpaceOnUse" color-interpolation-filters="sRGB">
<feFlood flood-opacity="0" result="BackgroundImageFix"/>
<feBlend mode="normal" in="SourceGraphic" in2="BackgroundImageFix" result="shape"/>
<feGaussianBlur stdDeviation="5.88797" result="effect1_foregroundBlur_105_4629"/>
</filter>
</defs>
</svg>
