<svg width="1920" height="86" viewBox="0 0 1920 86" fill="none" xmlns="http://www.w3.org/2000/svg">
<path d="M0.0193272 87C0.0193272 87 121.594 87 121.648 87C121.701 87 121.755 87 121.809 87C121.648 87 121.809 87 121.813 87.0806C121.817 87.1611 235.352 87.0883 235.352 87.0883C277.311 87.0883 319.269 87.0844 361.228 87.0883C398.919 87.0921 436.611 87.1113 474.302 87.1113C554.905 87.1075 635.507 87.096 716.11 87.0922C758.337 87.0883 800.561 87.0883 842.784 87.0883C876.47 87.0883 910.16 87.0922 943.846 87.0922C945.916 87.0922 947.986 87.1113 950.056 87.0883C963.456 87.0767 1045.14 86.9999 1081.45 87.0038C1081.5 87.0038 1081.56 87.0038 1081.61 87.0038C1081.61 87.0307 1081.62 87.0576 1081.62 87.0845C1119.46 87.0845 1157.31 87.0922 1195.15 87.0922C1237.11 87.0922 1279.07 87.0883 1321.03 87.0922C1358.72 87.096 1396.41 87.1152 1434.1 87.1152C1514.71 87.1114 1595.31 87.0998 1675.91 87.0959C1718.14 87.0921 1760.36 87.0922 1802.59 87.0922C1836.27 87.0922 1869.96 87.0959 1903.65 87.0959C1906.85 87.0959 1920 87 1920 87C1920 87 1920 84.6151 1920 78.4779C1918.21 79.3189 1917.15 79.8144 1916.09 80.3291C1903.48 86.4548 1890.6 86.8542 1877.68 81.608C1859.69 74.2955 1851.71 55.1194 1859.18 37.6869C1864.9 24.337 1879.31 17.9309 1891.39 23.3769C1898.92 26.772 1902.36 34.7681 1899.23 42.3687C1898.45 44.2659 1896.53 45.6984 1894.56 48.0181C1893.18 39.2232 1890.19 35.6169 1884.79 35.083C1879.29 34.5377 1874.03 37.7983 1872.39 43.1713C1870.78 48.4483 1871.67 53.4833 1874.89 58.0191C1881.53 67.344 1897.31 68.9647 1907.36 61.3719C1920.91 51.1329 1923.28 30.0864 1913.16 15.5959C1900.49 -2.55478 1868.93 -3.56096 1854.81 6.96994C1845.17 14.1634 1837.85 23.1619 1832.75 33.9923C1827.33 45.4757 1821.91 56.9475 1813.63 66.7526C1799.39 83.6243 1777.4 89.5465 1757.94 81.7616C1740.81 74.9062 1732.49 57.5083 1738.09 40.2755C1741.99 28.266 1752.72 20.6539 1764.39 21.6064C1776.06 22.5589 1782.87 31.7686 1779.28 42.0537C1778.58 44.0393 1776.69 45.6062 1774.82 48.0681C1772.94 39.035 1769.92 35.5132 1764.56 35.0792C1755.96 34.3841 1749.7 42.5952 1751.93 51.6513C1754.74 63.0886 1768.45 69.3757 1780.74 64.8668C1796.44 59.1098 1803.98 38.7431 1796.74 22.0558C1786.85 -0.753515 1757.08 -4.16011 1739.85 4.17013C1726.77 10.4956 1718.71 21.7792 1712.37 34.4839C1708.5 42.2419 1704.76 50.1113 1700.23 57.4814C1688.89 75.9008 1672.93 86.7044 1650.49 84.8417C1629.8 83.125 1613.02 67.7472 1617.01 43.9855C1618.85 33.0629 1628.06 23.4153 1638.47 21.7639C1648.32 20.2007 1657.27 24.8632 1659.64 32.8056C1661.53 39.1041 1659.1 45.3528 1654.2 46.6432C1654.12 46.263 1654 45.8904 1653.95 45.5102C1653.17 39.1387 1649.45 35.2443 1643.91 35.0139C1638.02 34.7719 1632.91 39.0235 1631.81 45.084C1630.47 52.4156 1634.31 60.1199 1640.98 63.4996C1650.49 68.3195 1662.23 66.5221 1669.95 59.0714C1681.01 48.4061 1682.09 28.9803 1673.2 15.9108C1660.73 -2.41267 1629.49 -3.39201 1615.62 6.34388C1605.16 13.6833 1597.78 23.3961 1592.17 34.7374C1588.15 42.8641 1584.14 51.0522 1579.32 58.7104C1567.93 76.8572 1551.75 86.9272 1529.77 84.7803C1509.16 82.7678 1493.46 67.8779 1496.82 44.5194C1498.46 33.0552 1508.02 23.2655 1519.07 21.6717C1527.73 20.4235 1536.08 24.4177 1538.97 31.1887C1541.65 37.4834 1539.71 44.4848 1534.24 46.9466C1534.04 46.094 1533.89 45.6062 1533.81 45.1031C1532.87 38.7008 1529.16 35.1023 1523.43 35.0523C1517.71 35.0024 1512.66 39.3154 1511.68 45.0878C1510.42 52.4732 1514.11 60.3618 1520.89 63.5034C1529.59 67.5322 1538.18 67.1674 1546.44 61.8635C1561.02 52.5001 1561.86 29.8675 1554.34 17.6813C1542.62 -1.31811 1514.68 -3.21535 1499.9 3.99344C1487.51 10.0347 1479.57 20.581 1473.23 32.4715C1468.27 41.7657 1463.87 51.4248 1458.18 60.2543C1445.66 79.6877 1425.49 88.3904 1405.05 84.089C1382.36 79.3151 1370.2 57.8117 1378.82 37.71C1384.19 25.1782 1397.26 18.6952 1409.22 22.6318C1417.61 25.3932 1421.92 33.3049 1419.21 41.6812C1418.53 43.7858 1416.54 45.4641 1415.15 47.3383C1414.03 46.0709 1413.96 45.4258 1413.85 44.7882C1412.82 38.916 1409.43 35.471 1404.31 35.06C1398.81 34.6222 1393.7 38.0711 1392.02 43.348C1389.75 50.5107 1393.31 59.3825 1399.92 63.0541C1409.06 68.1198 1420.86 66.8754 1428.75 60.02C1440.55 49.7618 1442.48 29.664 1433.46 16.4523C1422.23 0.00308228 1399.3 -2.99258 1383.29 2.63773C1368.61 7.80716 1359.94 19.786 1352.86 33.0667C1347.41 43.3019 1342.54 54.0095 1335.82 63.3613C1323.39 80.6517 1306.09 88.0678 1284.73 84.016C1264.82 80.2369 1253.17 63.0963 1256.86 43.5746C1259.8 28.0471 1274.73 18.292 1288.96 22.6088C1297.87 25.3126 1302.51 34.2957 1298.94 42.4877C1298.13 44.3273 1296.22 45.6793 1294.15 48.0066C1293.11 38.6318 1288.66 34.4532 1281.86 35.0485C1275.69 35.59 1270.49 42.046 1271.42 48.8707C1271.87 52.1813 1273.1 55.7185 1275 58.4415C1281.04 67.079 1296.11 68.5807 1305.88 62.2629C1320.09 53.0685 1321.49 33.324 1316.2 21.7293C1310.76 9.78504 1301.03 3.10629 1288.11 1.06694C1273.41 -1.25278 1259.96 0.828827 1248.7 11.6209C1241.36 18.6607 1235.84 26.8526 1231.41 35.9587C1227.68 43.6322 1223.89 51.3441 1219.32 58.5298C1207.77 76.7035 1191.59 87.0885 1169.4 84.7496C1147.37 82.426 1133.17 66.4031 1136.7 44.3542C1139.2 28.6846 1153.82 18.5762 1168.18 22.3707C1177.32 24.7864 1182.29 33.8195 1178.86 42.2688C1178.09 44.1545 1176.21 45.5909 1174.84 47.2347C1173.78 45.9481 1173.67 45.4373 1173.62 44.9226C1173.19 40.3638 1170.88 37.1262 1166.58 35.5785C1162.43 34.0845 1158.69 35.2252 1155.41 38.025C1150.47 42.2573 1149.79 50.8295 1153.87 57.1357C1160.05 66.6796 1175.59 69.1644 1185.71 62.2322C1196.84 54.6124 1201.84 40.2371 1197.79 26.3149C1194.33 14.4475 1186.49 6.11345 1174.69 2.71837C1155.05 -2.9273 1138 -0.396318 1124.34 16.3064C1118.67 23.2425 1114.61 31.5113 1109.9 39.2155C1104.2 48.5251 1099.41 58.5221 1092.76 67.079C1090.17 70.4088 1087.18 73.2969 1083.9 75.7318C1083.91 75.7626 1083.91 75.7971 1083.91 75.8278C1073.18 83.8201 1060.2 86.7812 1045.15 83.9238C1025.24 80.1447 1013.59 63.0041 1017.28 43.4824C1020.22 27.9549 1035.15 18.1998 1049.38 22.5166C1058.29 25.2204 1062.93 34.2074 1059.36 42.3955C1058.56 44.2352 1056.64 45.5871 1054.57 47.9145C1053.53 38.5396 1049.08 34.361 1042.28 34.9563C1036.11 35.4978 1030.91 41.9538 1031.84 48.7786C1032.29 52.0892 1033.52 55.6264 1035.42 58.3493C1041.46 66.9868 1056.53 68.4885 1066.3 62.1707C1080.51 52.9763 1081.91 33.2319 1076.62 21.6372C1071.18 9.69292 1061.45 3.01411 1048.53 0.974757C1033.83 -1.34496 1020.38 0.736645 1009.12 11.5287C1001.78 18.5685 996.262 26.7566 991.833 35.8665C988.1 43.54 984.31 51.2519 979.743 58.4376C975.695 64.8053 971.067 70.1899 965.825 74.4337C965.825 74.4337 961.132 78.1245 955.559 80.6248C955.083 80.8475 954.607 81.028 954.13 81.2354C953.416 81.5196 952.694 81.7961 951.964 82.0189C951.507 82.161 951.115 82.3569 950.77 82.5873C939.924 86.4126 928.905 86.09 917.86 81.6041C899.859 74.2917 891.886 55.1156 899.352 37.6831C905.071 24.3332 919.488 17.9271 931.563 23.3731C939.091 26.7682 942.532 34.7643 939.402 42.3648C938.622 44.262 936.702 45.6946 934.732 48.0143C933.36 39.2194 930.365 35.6131 924.965 35.0792C919.465 34.5339 914.207 37.7945 912.564 43.1675C910.951 48.4444 911.842 53.4794 915.068 58.0152C921.7 67.3401 937.481 68.9609 947.532 61.368C961.086 51.129 963.459 30.0826 953.343 15.592C940.669 -2.55859 909.107 -3.56483 894.989 6.96607C885.345 14.1595 878.033 23.158 872.925 33.9885C867.51 45.4718 862.091 56.9437 853.814 66.7487C839.573 83.6204 817.578 89.5426 798.125 81.7577C780.996 74.9023 772.67 57.5044 778.27 40.2717C782.176 28.2621 792.902 20.6501 804.578 21.6026C816.242 22.555 823.051 31.7648 819.46 42.0499C818.765 44.0354 816.875 45.6024 815.001 48.0643C813.119 39.0312 810.104 35.5093 804.747 35.0754C796.144 34.3802 789.884 42.5914 792.111 51.6475C794.922 63.0848 808.626 69.3718 820.919 64.863C836.624 59.1059 844.159 38.7393 836.923 22.0519C827.034 -0.757383 797.261 -4.16398 780.032 4.16626C766.955 10.4917 758.898 21.7754 752.561 34.4801C748.689 42.2381 744.949 50.1074 740.413 57.4775C729.076 75.897 713.118 86.7006 690.673 84.8379C669.996 83.1212 653.205 67.7434 657.203 43.9817C659.038 33.0591 668.252 23.4115 678.66 21.76C688.511 20.1969 697.456 24.8594 699.833 32.8018C701.719 39.1003 699.292 45.349 694.395 46.6394C694.307 46.2592 694.188 45.8866 694.141 45.5064C693.358 39.1349 689.636 35.2405 684.098 35.0101C678.211 34.7681 673.099 39.0196 671.997 45.0801C670.664 52.4118 674.501 60.116 681.172 63.4957C690.681 68.3157 702.418 66.5183 710.145 59.0675C721.202 48.4022 722.282 28.9765 713.387 15.907C700.92 -2.41648 669.688 -3.39582 655.812 6.34008C645.351 13.6794 637.969 23.3923 632.362 34.7335C628.344 42.8602 624.331 51.0484 619.519 58.7065C608.12 76.8533 591.943 86.9233 569.96 84.7764C549.359 82.764 533.658 67.874 537.011 44.5155C538.655 33.0513 548.218 23.2617 559.26 21.6679C567.924 20.4197 576.278 24.4139 579.162 31.1848C581.843 37.4796 579.903 44.481 574.438 46.9428C574.234 46.0902 574.081 45.6024 574.004 45.0993C573.059 38.697 569.349 35.0984 563.623 35.0485C557.904 34.9985 552.854 39.3115 551.867 45.084C550.607 52.4694 554.298 60.358 561.076 63.4996C569.779 67.5284 578.371 67.1635 586.628 61.8596C601.207 52.4963 602.048 29.8637 594.528 17.6775C582.81 -1.32192 554.874 -3.21915 540.091 3.98964C527.705 10.0309 519.759 20.5771 513.419 32.4676C508.46 41.7618 504.062 51.4209 498.374 60.2504C485.85 79.6838 465.679 88.3866 445.236 84.0852C422.553 79.3113 410.39 57.8078 419.009 37.7062C424.382 25.1743 437.451 18.6914 449.411 22.628C457.799 25.3894 462.108 33.301 459.4 41.6773C458.72 43.782 456.727 45.4603 455.337 47.3345C454.223 46.0671 454.15 45.4219 454.039 44.7844C453.009 38.9121 449.626 35.4671 444.499 35.0561C438.999 34.6183 433.887 38.0672 432.209 43.3442C429.935 50.5069 433.491 59.3786 440.113 63.0502C449.249 68.116 461.048 66.8716 468.936 60.0162C480.738 49.758 482.666 29.6601 473.649 16.4485C462.419 -0.000785828 439.487 -2.99645 423.483 2.63386C408.796 7.8033 400.128 19.7821 393.054 33.0629C387.604 43.2981 382.73 54.0056 376.005 63.3575C363.577 80.6478 346.275 88.064 324.922 84.0122C305.012 80.233 293.356 63.0925 297.051 43.5708C299.992 28.0433 314.925 18.2882 329.15 22.605C338.064 25.3088 342.696 34.2919 339.128 42.4839C338.329 44.3235 336.409 45.6754 334.339 48.0028C333.298 38.6279 328.847 34.4494 322.049 35.0447C315.877 35.5862 310.677 42.0422 311.61 48.8669C312.063 52.1775 313.292 55.7147 315.193 58.4376C321.227 67.0751 336.301 68.5768 346.068 62.2591C360.278 53.0647 361.676 33.3202 356.392 21.7255C350.946 9.78123 341.225 3.10243 328.298 1.06307C313.6 -1.25665 300.15 0.82496 288.889 11.617C281.546 18.6568 276.031 26.8488 271.603 35.9549C267.87 43.6284 264.079 51.3403 259.509 58.526C247.96 76.6997 231.772 87.0846 209.589 84.7457C187.563 82.4222 173.357 66.3992 176.886 44.3504C179.394 28.6808 194.007 18.5723 208.371 22.3668C217.512 24.7826 222.478 33.8156 219.048 42.2649C218.28 44.1507 216.398 45.587 215.031 47.2308C213.971 45.9442 213.863 45.4335 213.813 44.9188C213.376 40.36 211.071 37.1224 206.774 35.5747C202.622 34.0807 198.881 35.2213 195.605 38.0211C190.658 42.2534 189.982 50.8256 194.061 57.1319C200.237 66.6757 215.776 69.1606 225.9 62.2283C237.026 54.6086 242.034 40.2333 237.978 26.3111C234.522 14.4437 226.683 6.10964 214.877 2.71456C195.236 -2.93111 178.188 -0.400185 164.531 16.3025C158.858 23.2387 154.803 31.5074 150.086 39.2117C144.391 48.5213 139.598 58.5183 132.946 67.0752C130.357 70.405 127.369 73.2931 124.093 75.728C124.097 75.7588 124.097 75.7933 124.101 75.824C113.37 83.8163 100.389 86.7774 85.3418 83.92C65.4322 80.1409 53.776 63.0003 57.4707 43.4786C60.4125 27.9511 75.3448 18.196 89.5703 22.5128C98.4843 25.2166 103.116 34.2035 99.5482 42.3917C98.7493 44.2313 96.829 45.5832 94.759 47.9106C93.7182 38.5357 89.2669 34.3572 82.4691 34.9525C76.2972 35.494 71.0971 41.95 72.0303 48.7748C72.4835 52.0853 73.7125 55.6225 75.6136 58.3455C81.651 66.983 96.7215 68.4847 106.488 62.1669C120.698 52.9725 122.096 33.228 116.812 21.6333C111.366 9.68905 101.645 3.01024 88.7177 0.970889C74.0236 -1.34883 60.57 0.732778 49.3094 11.5248C41.9662 18.5646 36.4511 26.7528 32.0229 35.8627C28.2898 43.5362 24.4991 51.2481 19.9327 58.4338C15.8847 64.8015 11.2568 70.186 6.01437 74.4299C6.01437 74.4299 3.51798 76.4117 0 78.451M35.5562 85.3295C32.3417 85.2642 29.4766 82.2954 29.4842 79.0424C29.4919 76.185 32.622 73.416 35.7175 73.5312C38.7401 73.6426 41.1981 76.1812 41.2672 79.2652C41.3363 82.3453 38.4712 85.391 35.5562 85.3295ZM155.317 85.4332C152.256 85.606 149.211 82.6488 149.088 79.3727C148.98 76.5653 151.6 73.8385 154.591 73.6387C157.733 73.4313 160.613 75.9699 160.767 79.0808C160.909 82.0842 158.179 85.268 155.317 85.4332ZM275.136 85.414C271.922 85.3487 269.056 82.3799 269.064 79.1269C269.072 76.2695 272.202 73.5005 275.297 73.6157C278.32 73.7271 280.778 76.2657 280.843 79.3497C280.912 82.4337 278.047 85.4754 275.136 85.414ZM395.124 85.1452C391.898 85.1528 389.313 82.595 389.232 79.3228C389.159 76.3195 392.071 73.5427 395.235 73.5965C398.208 73.6464 400.862 76.2849 400.923 79.2422C400.989 82.4337 398.327 85.1413 395.124 85.1452ZM515.178 85.1413C511.921 85.1374 509.578 82.9368 509.447 79.7491C509.309 76.4424 511.763 73.7002 514.928 73.6272C518.292 73.5504 520.819 75.9431 520.9 79.2767C520.977 82.5643 518.465 85.1413 515.178 85.1413ZM635.154 85.245C631.905 85.1452 629.105 82.1342 629.282 78.9311C629.435 76.1544 632.308 73.585 635.227 73.6042C638.407 73.6234 640.988 76.2657 640.968 79.4803C640.957 82.6872 638.276 85.341 635.154 85.245ZM755.326 85.1643C751.889 85.1144 749.335 82.449 749.435 79.0232C749.519 76.1697 752.261 73.608 755.241 73.6003C758.341 73.5927 761.152 76.3579 761.167 79.4227C761.179 82.5182 758.441 85.2104 755.326 85.1643ZM875.444 85.1721C872.218 85.2105 869.649 82.668 869.587 79.3651C869.534 76.3617 872.022 73.7923 875.106 73.6694C878.329 73.5427 881.121 76.0967 881.228 79.2691C881.34 82.3915 878.651 85.1337 875.444 85.1721ZM995.359 85.3295C992.145 85.2642 989.279 82.2954 989.287 79.0424C989.295 76.185 992.425 73.416 995.52 73.5312C998.543 73.6426 1001 76.1812 1001.07 79.2652C1001.14 82.3453 998.27 85.391 995.359 85.3295ZM1115.12 85.4332C1112.05 85.606 1109.01 82.6488 1108.89 79.3727C1108.78 76.5653 1111.4 73.8385 1114.39 73.6387C1117.53 73.4313 1120.41 75.9699 1120.57 79.0808C1120.71 82.0842 1117.98 85.268 1115.12 85.4332ZM1234.93 85.414C1231.72 85.3487 1228.85 82.3799 1228.86 79.1269C1228.87 76.2695 1232 73.5005 1235.1 73.6157C1238.12 73.7271 1240.58 76.2657 1240.65 79.3497C1240.71 82.4337 1237.85 85.4754 1234.93 85.414ZM1354.92 85.1452C1351.7 85.1528 1349.11 82.595 1349.03 79.3228C1348.96 76.3195 1351.87 73.5427 1355.03 73.5965C1358.01 73.6464 1360.66 76.2849 1360.72 79.2422C1360.79 82.4337 1358.13 85.1413 1354.92 85.1452ZM1474.98 85.1413C1471.72 85.1374 1469.38 82.9368 1469.24 79.7491C1469.11 76.4424 1471.56 73.7002 1474.73 73.6272C1478.09 73.5504 1480.62 75.9431 1480.7 79.2767C1480.77 82.5643 1478.26 85.1413 1474.98 85.1413ZM1594.96 85.245C1591.71 85.1452 1588.9 82.1342 1589.08 78.9311C1589.24 76.1544 1592.11 73.585 1595.03 73.6042C1598.21 73.6234 1600.79 76.2657 1600.77 79.4803C1600.75 82.6872 1598.08 85.341 1594.96 85.245ZM1715.12 85.1643C1711.69 85.1144 1709.13 82.449 1709.23 79.0232C1709.32 76.1697 1712.06 73.608 1715.04 73.6003C1718.14 73.5927 1720.95 76.3579 1720.97 79.4227C1720.98 82.5182 1718.24 85.2104 1715.12 85.1643ZM1835.24 85.1721C1832.02 85.2105 1829.45 82.668 1829.39 79.3651C1829.33 76.3617 1831.82 73.7923 1834.9 73.6694C1838.13 73.5427 1840.92 76.0967 1841.03 79.2691C1841.14 82.3915 1838.45 85.1337 1835.24 85.1721Z" fill="#FDD5A5"/>
</svg>
