<svg width="1920" height="175" viewBox="0 0 1920 175" fill="none" xmlns="http://www.w3.org/2000/svg">
<path fill-rule="evenodd" clip-rule="evenodd" d="M121.648 86.9997H0.0193272L0 78.4508C3.51798 76.4114 6.01437 74.4296 6.01437 74.4296C11.2568 70.1858 15.8847 64.8013 19.9327 58.4336C24.4991 51.2478 28.2898 43.5359 32.0229 35.8624C36.4511 26.7526 41.9662 18.5644 49.3094 11.5246C60.57 0.73252 74.0236 -1.34909 88.7177 0.970631C101.645 3.00999 111.366 9.68879 116.812 21.633C122.096 33.2278 120.698 52.9723 106.488 62.1666C96.7215 68.4844 81.651 66.9828 75.6136 58.3453C73.7125 55.6223 72.4835 52.0851 72.0303 48.7745C71.0971 41.9498 76.2972 35.4937 82.4691 34.9522C89.2669 34.3569 93.7182 38.5355 94.759 47.9103C95.466 47.1154 96.1555 46.4343 96.7889 45.8087C98.0099 44.6026 99.0222 43.6028 99.5482 42.3914C103.116 34.2033 98.4843 25.2163 89.5703 22.5125C75.3448 18.1957 60.4125 27.9508 57.4707 43.4783C53.776 63.0001 65.4322 80.1406 85.3418 83.9197C100.389 86.7771 113.37 83.816 124.101 75.8238C124.097 75.7931 124.097 75.7585 124.093 75.7278C127.369 73.2928 130.357 70.4047 132.946 67.0749C137.431 61.3051 141.071 54.8805 144.713 48.4533C146.472 45.3488 148.231 42.2436 150.086 39.2114C151.466 36.958 152.789 34.6563 154.112 32.3538C157.313 26.7842 160.517 21.2097 164.531 16.3023C178.188 -0.400443 195.236 -2.93137 214.877 2.7143C226.683 6.10938 234.522 14.4435 237.978 26.3109C242.034 40.233 237.026 54.6083 225.9 62.2281C215.776 69.1603 200.237 66.6755 194.061 57.1316C189.982 50.8254 190.658 42.2532 195.605 38.0208C198.881 35.221 202.622 34.0804 206.774 35.5744C211.071 37.1222 213.376 40.3598 213.813 44.9186C213.863 45.4332 213.971 45.944 215.031 47.2305C215.463 46.7112 215.946 46.2125 216.43 45.7138C217.476 44.6342 218.523 43.5546 219.048 42.2647C222.478 33.8154 217.512 24.7823 208.371 22.3666C194.007 18.5721 179.394 28.6805 176.886 44.3501C173.357 66.3989 187.563 82.4219 209.589 84.7455C231.772 87.0844 247.96 76.6994 259.509 58.5258C264.079 51.34 267.87 43.6281 271.603 35.9546C276.031 26.8486 281.546 18.6566 288.889 11.6168C300.15 0.824702 313.6 -1.2569 328.298 1.06281C341.225 3.10217 350.946 9.78098 356.392 21.7252C361.676 33.32 360.278 53.0644 346.068 62.2588C336.301 68.5766 321.227 67.0749 315.193 58.4374C313.292 55.7144 312.063 52.1773 311.61 48.8667C310.677 42.042 315.877 35.5859 322.049 35.0444C328.847 34.4491 333.298 38.6276 334.339 48.0025C335.046 47.2076 335.735 46.5265 336.369 45.9009C337.59 44.6948 338.602 43.6949 339.128 42.4836C342.696 34.2916 338.064 25.3085 329.15 22.6047C314.925 18.2879 299.992 28.043 297.051 43.5705C293.356 63.0922 305.012 80.2328 324.922 84.0119C346.275 88.0638 363.577 80.6476 376.005 63.3572C381.095 56.2799 385.124 48.4261 389.145 40.5882C390.437 38.0693 391.728 35.552 393.054 33.0626C400.128 19.7819 408.796 7.80304 423.483 2.6336C439.487 -2.9967 462.419 -0.00104376 473.649 16.4482C482.666 29.6598 480.738 49.7577 468.936 60.0159C461.048 66.8714 449.249 68.1157 440.113 63.05C433.491 59.3783 429.935 50.5066 432.209 43.3439C433.887 38.0669 438.999 34.6181 444.499 35.0559C449.626 35.4668 453.009 38.9119 454.039 44.7841L454.052 44.8623C454.158 45.4754 454.268 46.1186 455.337 47.3343C455.774 46.7445 456.271 46.1742 456.769 45.6038C457.851 44.3616 458.934 43.1194 459.4 41.6771C462.108 33.3007 457.799 25.3891 449.411 22.6278C437.451 18.6911 424.382 25.174 419.009 37.7059C410.39 57.8076 422.553 79.311 445.236 84.0849C465.679 88.3864 485.85 79.6835 498.374 60.2501C502.336 54.1 505.672 47.5473 509.008 40.9958C510.461 38.1416 511.914 35.2877 513.419 32.4673C519.759 20.5769 527.705 10.0306 540.091 3.98938C554.874 -3.21941 582.81 -1.32218 594.528 17.6772C602.048 29.8634 601.207 52.496 586.628 61.8594C578.371 67.1632 569.779 67.5281 561.076 63.4993C554.298 60.3577 550.607 52.4692 551.867 45.0837C552.854 39.3113 557.904 34.9983 563.623 35.0482C569.349 35.0981 573.059 38.6968 574.004 45.099C574.054 45.4253 574.136 45.745 574.243 46.162C574.301 46.3881 574.366 46.6428 574.438 46.9425C579.903 44.4807 581.843 37.4793 579.162 31.1846C576.278 24.4136 567.924 20.4194 559.26 21.6676C548.218 23.2615 538.655 33.0511 537.011 44.5152C533.658 67.8737 549.359 82.7637 569.96 84.7762C591.943 86.9231 608.12 76.8531 619.519 58.7063C624.181 51.2875 628.093 43.3712 631.985 35.4953L632.362 34.7333C637.969 23.392 645.351 13.6792 655.812 6.33982C669.688 -3.39608 700.92 -2.41674 713.387 15.9067C722.282 28.9763 721.202 48.4019 710.145 59.0673C702.418 66.518 690.681 68.3154 681.172 63.4955C674.501 60.1157 670.664 52.4115 671.997 45.0798C673.099 39.0194 678.211 34.7679 684.098 35.0098C689.636 35.2403 693.358 39.1346 694.141 45.5062C694.174 45.7708 694.241 46.0317 694.309 46.2941C694.338 46.4087 694.368 46.5236 694.395 46.6391C699.292 45.3487 701.719 39.1001 699.833 32.8015C697.456 24.8591 688.511 20.1967 678.66 21.7598C668.252 23.4112 659.038 33.0588 657.203 43.9814C653.205 67.7432 669.996 83.1209 690.673 84.8376C713.118 86.7003 729.076 75.8967 740.413 57.4772C744.262 51.2225 747.539 44.6082 750.809 38.0075C751.392 36.8304 751.975 35.6539 752.561 34.4798C758.898 21.7751 766.955 10.4915 780.032 4.16601C797.261 -4.16424 827.034 -0.757641 836.923 22.0516C844.159 38.739 836.624 59.1057 820.919 64.8627C808.626 69.3716 794.922 63.0845 792.111 51.6473C789.884 42.5911 796.144 34.38 804.747 35.0751C810.104 35.5091 813.119 39.0309 815.001 48.064C815.634 47.2331 816.268 46.5042 816.857 45.8267C818.015 44.4968 819 43.365 819.46 42.0496C823.051 31.7645 816.242 22.5548 804.578 21.6023C792.902 20.6499 782.176 28.2619 778.27 40.2714C772.67 57.5041 780.996 74.902 798.125 81.7575C817.578 89.5424 839.573 83.6202 853.814 66.7484C862.091 56.9434 867.51 45.4716 872.925 33.9882C878.033 23.1577 885.345 14.1592 894.989 6.96581C909.107 -3.56509 940.669 -2.55885 953.343 15.5918C963.459 30.0823 961.086 51.1287 947.532 61.3678C937.481 68.9606 921.7 67.3399 915.068 58.0149C911.842 53.4792 910.951 48.4442 912.564 43.1672C914.207 37.7942 919.465 34.5336 924.965 35.079C930.365 35.6128 933.36 39.2191 934.732 48.0141C935.395 47.2326 936.053 46.5518 936.664 45.92C937.866 44.6764 938.885 43.6226 939.402 42.3645C942.532 34.764 939.091 26.7679 931.563 23.3728C919.488 17.9269 905.071 24.333 899.352 37.6829C891.886 55.1153 899.859 74.2914 917.86 81.6039C928.905 86.0897 939.924 86.4123 950.77 82.5871C951.115 82.3566 951.507 82.1607 951.964 82.0186C952.694 81.7959 953.416 81.5194 954.13 81.2352C954.316 81.1545 954.501 81.0779 954.686 81.0013C954.977 80.881 955.268 80.7606 955.559 80.6245C961.132 78.1243 965.825 74.4335 965.825 74.4335C971.067 70.1896 975.695 64.8051 979.743 58.4374C984.31 51.2516 988.1 43.5397 991.833 35.8662C996.262 26.7564 1001.78 18.5683 1009.12 11.5284C1020.38 0.736387 1033.83 -1.34522 1048.53 0.974499C1061.45 3.01385 1071.18 9.69266 1076.62 21.6369C1081.91 33.2316 1080.51 52.9761 1066.3 62.1704C1056.53 68.4882 1041.46 66.9866 1035.42 58.3491C1033.52 55.6261 1032.29 52.0889 1031.84 48.7783C1030.91 41.9536 1036.11 35.4975 1042.28 34.956C1049.08 34.3607 1053.53 38.5393 1054.57 47.9142C1055.28 47.1193 1055.96 46.4381 1056.6 45.8125C1057.82 44.6064 1058.83 43.6066 1059.36 42.3953C1062.93 34.2071 1058.29 25.2201 1049.38 22.5164C1035.15 18.1995 1020.22 27.9546 1017.28 43.4821C1013.59 63.0039 1025.24 80.1444 1045.15 83.9236C1060.2 86.781 1073.18 83.8199 1083.91 75.8276C1083.91 75.8122 1083.91 75.7959 1083.91 75.7796C1083.91 75.7633 1083.9 75.7469 1083.9 75.7316C1087.18 73.2967 1090.17 70.4085 1092.76 67.0787C1097.24 61.3088 1100.88 54.8841 1104.52 48.4569C1106.28 45.3524 1108.04 42.2474 1109.9 39.2153C1111.28 36.9616 1112.6 34.6596 1113.92 32.3568C1117.12 26.7875 1120.33 21.2133 1124.34 16.3062C1138 -0.396576 1155.05 -2.92756 1174.69 2.71811C1186.49 6.11319 1194.33 14.4473 1197.79 26.3147C1201.84 40.2368 1196.84 54.6122 1185.71 62.2319C1175.59 69.1642 1160.05 66.6793 1153.87 57.1355C1149.79 50.8292 1150.47 42.257 1155.41 38.0247C1158.69 35.2249 1162.43 34.0842 1166.58 35.5782C1170.88 37.126 1173.19 40.3636 1173.62 44.9224C1173.67 45.437 1173.78 45.9478 1174.84 47.2344C1175.27 46.718 1175.75 46.222 1176.23 45.7262C1177.28 44.6438 1178.33 43.5618 1178.86 42.2685C1182.29 33.8192 1177.32 24.7862 1168.18 22.3704C1153.82 18.5759 1139.2 28.6844 1136.7 44.354C1133.17 66.4028 1147.37 82.4258 1169.4 84.7493C1191.59 87.0882 1207.77 76.7032 1219.32 58.5296C1223.89 51.3438 1227.68 43.6319 1231.41 35.9584C1235.84 26.8524 1241.36 18.6604 1248.7 11.6206C1259.96 0.828569 1273.41 -1.25304 1288.11 1.06668C1301.03 3.10604 1310.76 9.78478 1316.2 21.729C1321.49 33.3238 1320.09 53.0683 1305.88 62.2626C1296.11 68.5804 1281.04 67.0788 1275 58.4413C1273.1 55.7183 1271.87 52.1811 1271.42 48.8705C1270.49 42.0458 1275.69 35.5897 1281.86 35.0482C1288.66 34.4529 1293.11 38.6315 1294.15 48.0064C1294.86 47.2118 1295.54 46.5309 1296.18 45.9055C1297.4 44.699 1298.41 43.699 1298.94 42.4874C1302.51 34.2954 1297.87 25.3123 1288.96 22.6085C1274.73 18.2917 1259.8 28.0468 1256.86 43.5743C1253.17 63.0961 1264.82 80.2366 1284.73 84.0157C1306.09 88.0676 1323.39 80.6514 1335.82 63.3611C1340.9 56.281 1344.94 48.4239 1348.96 40.583C1350.25 38.0671 1351.54 35.5529 1352.86 33.0665C1359.94 19.7857 1368.61 7.80691 1383.29 2.63747C1399.3 -2.99284 1422.23 0.00282434 1433.46 16.4521C1442.48 29.6637 1440.55 49.7615 1428.75 60.0197C1420.86 66.8752 1409.06 68.1196 1399.92 63.0538C1393.31 59.3822 1389.75 50.5105 1392.02 43.3478C1393.7 38.0708 1398.81 34.6219 1404.31 35.0597C1409.43 35.4707 1412.82 38.9157 1413.85 44.788L1413.86 44.8657C1413.97 45.479 1414.08 46.1222 1415.15 47.3381C1415.58 46.7483 1416.08 46.178 1416.58 45.6076C1417.66 44.3654 1418.74 43.1233 1419.21 41.6809C1421.92 33.3046 1417.61 25.393 1409.22 22.6316C1397.26 18.695 1384.19 25.1779 1378.82 37.7098C1370.2 57.8114 1382.36 79.3148 1405.05 84.0887C1425.49 88.3902 1445.66 79.6874 1458.18 60.254C1462.15 54.1046 1465.48 47.5528 1468.82 41.0021C1470.27 38.1471 1471.72 35.2924 1473.23 32.4712C1479.57 20.5807 1487.51 10.0344 1499.9 3.99319C1514.68 -3.2156 1542.62 -1.31837 1554.34 17.681C1561.86 29.8672 1561.02 52.4999 1546.44 61.8632C1538.18 67.1671 1529.59 67.5319 1520.89 63.5031C1514.11 60.3615 1510.42 52.473 1511.68 45.0875C1512.66 39.3151 1517.71 35.0021 1523.43 35.0521C1529.16 35.102 1532.87 38.7006 1533.81 45.1029C1533.86 45.4349 1533.94 45.7602 1534.05 46.1881C1534.11 46.4086 1534.17 46.6564 1534.24 46.9464C1539.71 44.4846 1541.65 37.4832 1538.97 31.1884C1536.08 24.4175 1527.73 20.4232 1519.07 21.6714C1508.02 23.2653 1498.46 33.055 1496.82 44.5191C1493.46 67.8776 1509.16 82.7676 1529.77 84.78C1551.75 86.9269 1567.93 76.8569 1579.32 58.7101C1583.99 51.2901 1587.9 43.3724 1591.8 35.4952L1592.17 34.7371C1597.78 23.3959 1605.16 13.683 1615.62 6.34363C1629.49 -3.39227 1660.73 -2.41293 1673.2 15.9105C1682.09 28.9801 1681.01 48.4058 1669.95 59.0711C1662.23 66.5219 1650.49 68.3193 1640.98 63.4993C1634.31 60.1196 1630.47 52.4154 1631.81 45.0837C1632.91 39.0232 1638.02 34.7717 1643.91 35.0136C1649.45 35.2441 1653.17 39.1384 1653.95 45.51C1653.98 45.775 1654.05 46.0362 1654.12 46.2989C1654.15 46.4132 1654.18 46.5277 1654.2 46.6429C1659.1 45.3525 1661.53 39.1039 1659.64 32.8053C1657.27 24.863 1648.32 20.2005 1638.47 21.7636C1628.06 23.4151 1618.85 33.0626 1617.01 43.9852C1613.02 67.747 1629.8 83.1247 1650.49 84.8415C1672.93 86.7041 1688.89 75.9006 1700.23 57.4811C1704.08 51.226 1707.35 44.6112 1710.62 38.0101C1711.21 36.8334 1711.79 35.6573 1712.37 34.4836C1718.71 21.7789 1726.77 10.4953 1739.85 4.16987C1757.08 -4.16037 1786.85 -0.753773 1796.74 22.0555C1803.98 38.7429 1796.44 59.1095 1780.74 64.8666C1768.45 69.3754 1754.74 63.0884 1751.93 51.6511C1749.7 42.595 1755.96 34.3838 1764.56 35.079C1769.92 35.513 1772.94 39.0347 1774.82 48.0678C1775.45 47.2369 1776.08 46.508 1776.67 45.8305C1777.83 44.5006 1778.82 43.3689 1779.28 42.0535C1782.87 31.7684 1776.06 22.5586 1764.39 21.6061C1752.72 20.6537 1741.99 28.2657 1738.09 40.2753C1732.49 57.508 1740.81 74.9059 1757.94 81.7614C1777.4 89.5462 1799.39 83.624 1813.63 66.7523C1821.91 56.9473 1827.33 45.4754 1832.75 33.9921C1837.85 23.1616 1845.17 14.1631 1854.81 6.96968C1868.93 -3.56122 1900.49 -2.55504 1913.16 15.5956C1923.28 30.0861 1920.91 51.1326 1907.36 61.3716C1897.31 68.9645 1881.53 67.3438 1874.89 58.0188C1871.67 53.4831 1870.78 48.448 1872.39 43.1711C1874.03 37.7981 1879.29 34.5374 1884.79 35.0828C1890.19 35.6166 1893.18 39.2229 1894.56 48.0179C1895.22 47.2364 1895.88 46.5556 1896.49 45.9238C1897.69 44.6802 1898.71 43.6265 1899.23 42.3684C1902.36 34.7679 1898.92 26.7717 1891.39 23.3766C1879.31 17.9307 1864.9 24.3368 1859.18 37.6867C1851.71 55.1191 1859.69 74.2952 1877.68 81.6077C1890.6 86.8539 1903.48 86.4546 1916.09 80.3288C1916.86 79.9514 1917.65 79.5843 1918.71 79.0836C1919.1 78.9016 1919.52 78.7019 1920 78.4776V86.9997C1920 86.9997 1906.85 87.0957 1903.65 87.0957C1886.81 87.0957 1869.96 87.0947 1853.12 87.0938C1836.27 87.0928 1819.43 87.0919 1802.59 87.0919H1800.87C1799.99 87.0919 1799.1 87.0919 1798.22 87.0919C1798.24 87.1065 1798.26 87.1133 1798.26 87.1165C1798.26 87.1194 1798.24 87.1194 1798.19 87.1194H1798.35H1919.98L1920 95.7549C1916.48 97.8149 1913.99 99.8167 1913.99 99.8167C1908.74 104.104 1904.12 109.542 1900.07 115.975C1895.5 123.233 1891.71 131.023 1887.98 138.774C1883.55 147.976 1878.03 156.247 1870.69 163.358C1859.43 174.26 1845.98 176.362 1831.28 174.019C1818.35 171.959 1808.63 165.213 1803.19 153.148C1797.9 141.435 1799.3 121.491 1813.51 112.204C1823.28 105.822 1838.35 107.339 1844.39 116.064C1846.29 118.814 1847.52 122.387 1847.97 125.731C1848.9 132.625 1843.7 139.147 1837.53 139.694C1830.73 140.295 1826.28 136.074 1825.24 126.604C1824.53 127.407 1823.84 128.095 1823.21 128.727C1821.99 129.945 1820.98 130.955 1820.45 132.179C1816.88 140.45 1821.52 149.528 1830.43 152.259C1844.66 156.62 1859.59 146.766 1862.53 131.081C1866.22 111.362 1854.57 94.0479 1834.66 90.2306C1819.61 87.3442 1806.63 90.3353 1795.9 98.4084C1795.9 98.4395 1795.9 98.4744 1795.91 98.5054C1792.63 100.965 1789.64 103.882 1787.05 107.246C1782.57 113.074 1778.93 119.564 1775.29 126.056C1773.53 129.192 1771.77 132.329 1769.91 135.391C1768.53 137.667 1767.21 139.992 1765.89 142.318C1762.69 147.944 1759.48 153.575 1755.47 158.532C1741.81 175.404 1724.76 177.96 1705.12 172.258C1693.32 168.828 1685.48 160.41 1682.02 148.422C1677.97 134.359 1682.97 119.839 1694.1 112.142C1704.22 105.139 1719.76 107.649 1725.94 117.29C1730.02 123.66 1729.34 132.319 1724.39 136.594C1721.12 139.422 1717.38 140.574 1713.23 139.065C1708.93 137.502 1706.62 134.231 1706.19 129.626C1706.14 129.107 1706.03 128.591 1704.97 127.291C1704.54 127.816 1704.05 128.319 1703.57 128.823C1702.52 129.914 1701.48 131.004 1700.95 132.307C1697.52 140.842 1702.49 149.966 1711.63 152.407C1725.99 156.239 1740.61 146.029 1743.11 130.201C1746.64 107.929 1732.44 91.7436 1710.41 89.3965C1688.23 87.0339 1672.04 97.5239 1660.49 115.881C1655.92 123.14 1652.13 130.93 1648.4 138.681C1643.97 147.879 1638.45 156.154 1631.11 163.265C1619.85 174.166 1606.4 176.269 1591.7 173.926C1578.78 171.866 1569.05 165.12 1563.61 153.054C1558.32 141.342 1559.72 121.398 1573.93 112.111C1583.7 105.729 1598.77 107.246 1604.81 115.971C1606.71 118.721 1607.94 122.294 1608.39 125.638C1609.32 132.532 1604.12 139.053 1597.95 139.6C1591.15 140.202 1586.7 135.981 1585.66 126.511C1584.95 127.314 1584.26 128.002 1583.63 128.634C1582.41 129.852 1581.4 130.862 1580.87 132.086C1577.3 140.361 1581.94 149.435 1590.85 152.166C1605.08 156.527 1620.01 146.673 1622.95 130.988C1626.64 111.269 1614.99 93.9548 1595.08 90.1374C1573.72 86.0446 1556.42 93.5359 1543.99 111.001C1538.91 118.15 1534.88 126.083 1530.86 134C1529.56 136.545 1528.27 139.088 1526.95 141.602C1519.87 155.017 1511.2 167.117 1496.52 172.339C1480.51 178.026 1457.58 175.001 1446.35 158.385C1437.33 145.039 1439.26 124.738 1451.06 114.376C1458.95 107.451 1470.75 106.195 1479.89 111.312C1486.51 115.02 1490.06 123.982 1487.79 131.217C1486.11 136.547 1481 140.031 1475.5 139.589C1470.37 139.174 1466.99 135.694 1465.96 129.762L1465.95 129.683C1465.84 129.064 1465.73 128.414 1464.66 127.186C1464.23 127.782 1463.73 128.358 1463.23 128.934C1462.15 130.189 1461.07 131.444 1460.6 132.901C1457.89 141.362 1462.2 149.353 1470.59 152.143C1482.55 156.119 1495.62 149.571 1500.99 136.912C1509.61 116.607 1497.45 94.8859 1474.76 90.0637C1454.32 85.7188 1434.15 94.5096 1421.63 114.14C1417.66 120.352 1414.33 126.971 1410.99 133.589C1409.54 136.472 1408.09 139.355 1406.58 142.204C1400.24 154.214 1392.29 164.867 1379.91 170.97C1365.13 178.251 1337.19 176.335 1325.47 157.143C1317.95 144.834 1318.79 121.972 1333.37 112.514C1341.63 107.157 1350.22 106.788 1358.92 110.858C1365.7 114.031 1369.39 121.999 1368.13 129.46C1367.15 135.29 1362.1 139.647 1356.38 139.597C1350.65 139.546 1346.94 135.911 1346 129.444C1345.95 129.114 1345.86 128.791 1345.76 128.37C1345.7 128.142 1345.63 127.885 1345.56 127.582C1340.1 130.069 1338.16 137.141 1340.84 143.499C1343.72 150.339 1352.08 154.373 1360.74 153.113C1371.78 151.503 1381.34 141.614 1382.99 130.034C1386.34 106.439 1370.64 91.3983 1350.04 89.3655C1328.06 87.1968 1311.88 97.3687 1300.48 115.699C1295.82 123.193 1291.91 131.19 1288.01 139.146L1287.64 139.915C1282.03 151.371 1274.65 161.182 1264.19 168.595C1250.31 178.43 1219.08 177.441 1206.61 158.932C1197.72 145.73 1198.8 126.108 1209.85 115.335C1217.58 107.808 1229.32 105.993 1238.83 110.862C1245.5 114.275 1249.34 122.058 1248 129.463C1246.9 135.585 1241.79 139.88 1235.9 139.635C1230.36 139.403 1226.64 135.469 1225.86 129.033C1225.83 128.765 1225.76 128.502 1225.69 128.236C1225.66 128.121 1225.63 128.005 1225.6 127.888C1220.71 129.192 1218.28 135.504 1220.17 141.866C1222.54 149.889 1231.49 154.598 1241.34 153.019C1251.75 151.351 1260.96 141.606 1262.8 130.573C1266.8 106.571 1250 91.0375 1229.33 89.3034C1206.88 87.4218 1190.92 98.3348 1179.59 116.941C1175.74 123.259 1172.46 129.94 1169.19 136.607C1168.61 137.796 1168.03 138.985 1167.44 140.171C1161.1 153.004 1153.04 164.402 1139.97 170.791C1122.74 179.206 1092.97 175.765 1083.08 152.725C1075.84 135.868 1083.38 115.296 1099.08 109.48C1111.37 104.926 1125.08 111.277 1127.89 122.83C1130.12 131.977 1123.86 140.272 1115.25 139.569C1109.9 139.131 1106.88 135.574 1105 126.449C1104.37 127.288 1103.73 128.025 1103.14 128.709C1101.99 130.052 1101 131.196 1100.54 132.524C1096.95 142.914 1103.76 152.216 1115.42 153.179C1127.1 154.141 1137.82 146.452 1141.73 134.321C1147.33 116.913 1139 99.3395 1121.87 92.4147C1102.42 84.551 1080.43 90.5332 1066.19 107.576C1057.91 117.48 1052.49 129.068 1047.08 140.667C1041.97 151.607 1034.65 160.697 1025.01 167.963C1010.89 178.601 979.331 177.584 966.657 159.25C956.541 144.613 958.914 123.353 972.468 113.011C982.519 105.341 998.3 106.978 1004.93 116.397C1008.16 120.979 1009.05 126.065 1007.44 131.395C1005.79 136.823 1000.53 140.116 995.035 139.566C989.635 139.026 986.64 135.383 985.268 126.5C984.605 127.289 983.947 127.977 983.336 128.615C982.134 129.871 981.115 130.935 980.598 132.206C977.468 139.884 980.909 147.961 988.437 151.39C1000.51 156.891 1014.93 150.42 1020.65 136.935C1028.11 119.326 1020.14 99.9563 1002.14 92.5698C991.095 88.0386 980.076 87.7128 969.23 91.5767C968.885 91.8095 968.493 92.0074 968.036 92.1509C967.306 92.3759 966.584 92.6552 965.87 92.9423C965.684 93.0238 965.499 93.1011 965.314 93.1785C965.023 93.3001 964.732 93.4216 964.441 93.5591C958.868 96.0846 954.175 99.8128 954.175 99.8128C948.933 104.1 944.305 109.539 940.257 115.971C935.69 123.229 931.9 131.019 928.167 138.77C923.738 147.972 918.223 156.243 910.88 163.354C899.619 174.256 886.171 176.358 871.473 174.015C858.545 171.955 848.825 165.209 843.379 153.144C838.094 141.432 839.492 121.487 853.702 112.2C863.469 105.818 878.543 107.335 884.577 116.06C886.478 118.81 887.707 122.383 888.16 125.728C889.094 132.621 883.893 139.143 877.721 139.69C870.924 140.291 866.472 136.07 865.432 126.6C864.725 127.403 864.035 128.091 863.402 128.723C862.181 129.942 861.168 130.952 860.642 132.175C857.074 140.446 861.706 149.524 870.62 152.255C884.846 156.616 899.777 146.762 902.719 131.077C906.413 111.358 894.758 94.0441 874.849 90.2267C859.801 87.3404 846.816 90.3315 836.089 98.4046C836.093 98.4356 836.093 98.4705 836.097 98.5016C832.821 100.961 829.833 103.878 827.244 107.242C822.759 113.07 819.119 119.56 815.477 126.052C813.718 129.188 811.959 132.324 810.104 135.387C808.724 137.664 807.401 139.989 806.078 142.315C802.877 147.941 799.673 153.571 795.66 158.528C782.002 175.4 764.954 177.957 745.313 172.254C733.507 168.824 725.668 160.406 722.212 148.418C718.156 134.355 723.164 119.835 734.291 112.138C744.414 105.135 759.953 107.645 766.129 117.286C770.208 123.656 769.532 132.315 764.585 136.59C761.309 139.418 757.568 140.57 753.417 139.061C749.119 137.498 746.815 134.227 746.377 129.623C746.327 129.103 746.219 128.587 745.159 127.287C744.729 127.809 744.248 128.31 743.767 128.811C742.718 129.904 741.669 130.997 741.142 132.303C737.713 140.838 742.678 149.962 751.819 152.403C766.183 156.236 780.796 146.025 783.304 130.197C786.834 107.925 772.628 91.7396 750.602 89.3926C728.415 87.03 712.227 97.5201 700.678 115.878C696.111 123.136 692.321 130.926 688.588 138.677C684.159 147.875 678.644 156.15 671.301 163.261C660.04 174.162 646.587 176.265 631.893 173.922C618.965 171.862 609.245 165.116 603.799 153.051C598.514 141.338 599.912 121.394 614.122 112.107C623.889 105.725 638.963 107.242 644.997 115.967C646.898 118.717 648.127 122.29 648.58 125.634C649.513 132.528 644.313 139.05 638.142 139.597C631.344 140.198 626.892 135.977 625.851 126.507C625.145 127.31 624.456 127.998 623.823 128.629C622.603 129.848 621.591 130.858 621.062 132.082C617.494 140.357 622.126 149.431 631.04 152.162C645.266 156.523 660.198 146.669 663.14 130.984C666.834 111.265 655.178 93.951 635.269 90.1336C613.915 86.0408 596.613 93.532 584.185 110.997C579.097 118.149 575.065 126.086 571.042 134.006C569.751 136.547 568.46 139.087 567.137 141.598C560.062 155.014 551.394 167.114 536.708 172.335C520.704 178.023 497.772 174.997 486.542 158.381C477.524 145.036 479.452 124.734 491.254 114.372C499.143 107.448 510.941 106.191 520.078 111.308C526.695 115.016 530.251 123.978 527.978 131.213C526.303 136.543 521.192 140.027 515.692 139.585C510.568 139.17 507.181 135.69 506.152 129.758L506.138 129.679C506.033 129.06 505.922 128.41 504.854 127.182C504.416 127.778 503.919 128.354 503.422 128.93C502.339 130.185 501.256 131.44 500.79 132.897C498.083 141.358 502.392 149.35 510.78 152.139C522.739 156.115 535.809 149.567 541.182 136.908C549.8 116.603 537.637 94.882 514.954 90.0599C494.511 85.7149 474.34 94.5057 461.816 114.136C457.854 120.348 454.519 126.966 451.184 133.583C449.73 136.467 448.277 139.35 446.772 142.2C440.432 154.21 432.485 164.863 420.099 170.966C405.317 178.248 377.381 176.331 365.663 157.14C358.143 144.83 358.984 121.968 373.563 112.51C381.82 107.153 390.412 106.784 399.115 110.854C405.893 114.027 409.584 121.996 408.324 129.456C407.337 135.287 402.287 139.643 396.568 139.593C390.842 139.542 387.132 135.907 386.187 129.44C386.139 129.105 386.055 128.776 385.946 128.343C385.889 128.121 385.826 127.871 385.757 127.578C380.292 130.065 378.352 137.137 381.033 143.495C383.917 150.335 392.271 154.37 400.935 153.109C411.977 151.499 421.54 141.61 423.183 130.03C426.536 106.435 410.836 91.3944 390.235 89.3616C368.251 87.1929 352.075 97.3648 340.676 115.695C336.01 123.19 332.097 131.187 328.205 139.144L327.829 139.911C322.222 151.367 314.84 161.178 304.378 168.592C290.506 178.426 259.271 177.437 246.804 158.928C237.909 145.726 238.989 126.104 250.046 115.331C257.773 107.804 269.51 105.989 279.019 110.858C285.69 114.272 289.527 122.054 288.194 129.46C287.092 135.581 281.98 139.876 276.093 139.632C270.554 139.399 266.829 135.465 266.049 129.029C266.017 128.761 265.95 128.498 265.882 128.232C265.852 128.117 265.823 128.001 265.796 127.885C260.903 129.188 258.472 135.5 260.358 141.862C262.735 149.885 271.68 154.595 281.531 153.016C291.939 151.347 301.152 141.602 302.988 130.569C306.982 106.567 290.195 91.0336 269.514 89.2995C247.069 87.418 231.112 98.3309 219.774 116.937C215.924 123.255 212.647 129.937 209.377 136.606C208.794 137.794 208.212 138.982 207.626 140.167C201.286 153 193.228 164.398 180.151 170.787C162.922 179.202 133.15 175.761 123.26 152.721C116.024 135.865 123.56 115.292 139.264 109.477C151.554 104.922 165.261 111.273 168.072 122.826C170.296 131.973 164.039 140.268 155.437 139.566C150.079 139.127 147.064 135.57 145.182 126.445C144.55 127.285 143.915 128.021 143.326 128.705C142.168 130.049 141.184 131.192 140.723 132.52C137.132 142.91 143.942 152.213 155.605 153.175C167.281 154.137 178.008 146.448 181.914 134.317C187.513 116.91 179.187 99.3356 162.058 92.4108C142.601 84.5471 120.606 90.5293 106.365 107.572C98.0889 117.476 92.6696 129.064 87.2544 140.663C82.1464 151.603 74.8339 160.693 65.1902 167.959C51.0722 178.597 19.5101 177.58 6.83618 159.246C-3.28378 144.609 -0.910264 123.349 12.6432 113.007C22.694 105.337 38.475 106.974 45.1077 116.394C48.3338 120.975 49.225 126.061 47.6119 131.392C45.9682 136.819 40.7103 140.113 35.2106 139.562C29.8107 139.022 26.8151 135.38 25.444 126.496C24.7802 127.285 24.1221 127.973 23.5114 128.611C22.3093 129.867 21.2907 130.932 20.7737 132.202C17.6436 139.88 21.0849 147.957 28.6124 151.386C40.6872 156.887 55.1048 150.416 60.8235 136.931C68.2896 119.323 60.3128 99.9525 42.3158 92.566C29.3999 87.2667 16.5224 87.6701 3.9137 93.8578C3.13685 94.2388 2.3558 94.6094 1.29099 95.1146C0.902872 95.2988 0.477055 95.5008 0 95.7278V87.1194C0 87.1194 13.145 87.0225 16.3519 87.0225C33.1948 87.0225 50.0387 87.0234 66.8826 87.0244C83.7264 87.0253 100.57 87.0263 117.413 87.0263H119.112C120.001 87.0263 120.889 87.0263 121.778 87.0263C121.758 87.0123 121.737 87.0057 121.737 87.0026C121.738 86.9997 121.756 86.9997 121.809 86.9997H121.648ZM838.388 87.088C838.388 87.0972 838.389 87.1064 838.389 87.1156H838.55C853.198 87.1171 875.23 87.1054 897.185 87.0902C895.895 87.0901 894.605 87.09 893.315 87.09C876.471 87.089 859.627 87.088 842.784 87.088C841.319 87.088 839.853 87.088 838.388 87.088ZM1023.64 87.0281C1024.66 87.0282 1025.67 87.0282 1026.69 87.0283C1043.53 87.0293 1060.37 87.0302 1077.22 87.0302C1078.68 87.0302 1080.15 87.0302 1081.61 87.0302C1081.61 87.0213 1081.61 87.0124 1081.61 87.0035H1081.45C1066.99 87.002 1045.32 87.0133 1023.64 87.0281ZM29.4842 79.0422C29.4766 82.2952 32.3417 85.264 35.5562 85.3293C38.4712 85.3907 41.3363 82.3451 41.2672 79.2649C41.1981 76.1809 38.7401 73.6423 35.7175 73.5309C32.622 73.4157 29.4919 76.1848 29.4842 79.0422ZM149.088 79.3725C149.211 82.6485 152.256 85.6058 155.317 85.4329C158.179 85.2678 160.909 82.0839 160.767 79.0806C160.613 75.9697 157.733 73.4311 154.591 73.6385C151.6 73.8382 148.98 76.565 149.088 79.3725ZM269.064 79.1267C269.056 82.3797 271.922 85.3484 275.136 85.4137C278.047 85.4752 280.912 82.4334 280.843 79.3494C280.778 76.2654 278.32 73.7268 275.297 73.6154C272.202 73.5002 269.072 76.2693 269.064 79.1267ZM389.232 79.3225C389.313 82.5947 391.898 85.1526 395.124 85.1449C398.327 85.1411 400.988 82.4334 400.923 79.2419C400.862 76.2846 398.208 73.6461 395.235 73.5962C392.071 73.5425 389.159 76.3192 389.232 79.3225ZM509.447 79.7489C509.578 82.9366 511.921 85.1372 515.178 85.141C518.465 85.141 520.977 82.564 520.9 79.2765C520.819 75.9428 518.292 73.5501 514.928 73.6269C511.763 73.6999 509.309 76.4421 509.447 79.7489ZM629.282 78.9308C629.105 82.1339 631.905 85.1449 635.154 85.2448C638.276 85.3408 640.957 82.6869 640.968 79.48C640.988 76.2654 638.407 73.6231 635.227 73.6039C632.308 73.5847 629.435 76.1541 629.282 78.9308ZM749.435 79.023C749.335 82.4488 751.889 85.1141 755.326 85.1641C758.441 85.2102 761.179 82.5179 761.167 79.4224C761.152 76.3576 758.341 73.5924 755.241 73.6001C752.261 73.6078 749.519 76.1694 749.435 79.023ZM869.587 79.3648C869.649 82.6677 872.218 85.2102 875.444 85.1718C878.651 85.1334 881.34 82.3912 881.228 79.2688C881.121 76.0965 878.329 73.5424 875.106 73.6692C872.022 73.7921 869.534 76.3615 869.587 79.3648ZM989.287 79.0422C989.279 82.2952 992.145 85.264 995.359 85.3293C998.27 85.3907 1001.14 82.3451 1001.07 79.2649C1001 76.1809 998.543 73.6423 995.52 73.5309C992.425 73.4157 989.295 76.1848 989.287 79.0422ZM1108.89 79.3725C1109.01 82.6485 1112.05 85.6058 1115.12 85.4329C1117.98 85.2678 1120.71 82.0839 1120.57 79.0806C1120.41 75.9697 1117.53 73.4311 1114.39 73.6385C1111.4 73.8382 1108.78 76.565 1108.89 79.3725ZM1228.86 79.1267C1228.85 82.3797 1231.72 85.3484 1234.93 85.4137C1237.85 85.4752 1240.71 82.4334 1240.65 79.3494C1240.58 76.2654 1238.12 73.7268 1235.1 73.6154C1232 73.5002 1228.87 76.2693 1228.86 79.1267ZM1349.03 79.3225C1349.11 82.5947 1351.7 85.1526 1354.92 85.1449C1358.13 85.1411 1360.79 82.4334 1360.72 79.2419C1360.66 76.2846 1358.01 73.6461 1355.03 73.5962C1351.87 73.5425 1348.96 76.3192 1349.03 79.3225ZM1469.24 79.7489C1469.38 82.9366 1471.72 85.1372 1474.98 85.141C1478.26 85.141 1480.77 82.564 1480.7 79.2765C1480.62 75.9428 1478.09 73.5501 1474.73 73.6269C1471.56 73.6999 1469.11 76.4421 1469.24 79.7489ZM1589.08 78.9308C1588.9 82.1339 1591.71 85.1449 1594.96 85.2448C1598.08 85.3408 1600.75 82.6869 1600.77 79.48C1600.79 76.2654 1598.21 73.6231 1595.03 73.6039C1592.11 73.5847 1589.24 76.1541 1589.08 78.9308ZM1709.23 79.023C1709.13 82.4488 1711.69 85.1141 1715.12 85.1641C1718.24 85.2102 1720.98 82.5179 1720.97 79.4224C1720.95 76.3576 1718.14 73.5924 1715.04 73.6001C1712.06 73.6078 1709.32 76.1694 1709.23 79.023ZM1829.39 79.3648C1829.45 82.6677 1832.02 85.2102 1835.24 85.1718C1838.45 85.1334 1841.14 82.3912 1841.03 79.2688C1840.92 76.0965 1838.13 73.5424 1834.9 73.6692C1831.82 73.7921 1829.33 76.3615 1829.39 79.3648ZM1890.52 95.1575C1890.52 91.8716 1887.66 88.8727 1884.44 88.8068C1881.53 88.7447 1878.66 91.8211 1878.73 94.9325C1878.8 98.0477 1881.26 100.612 1884.28 100.724C1887.38 100.841 1890.51 98.0438 1890.52 95.1575ZM1770.91 94.8238C1770.79 91.5147 1767.74 88.5275 1764.68 88.7021C1761.82 88.8689 1759.09 92.085 1759.23 95.1187C1759.39 98.2611 1762.27 100.825 1765.41 100.616C1768.4 100.414 1771.02 97.6597 1770.91 94.8238ZM1650.94 95.0721C1650.94 91.7862 1648.08 88.7874 1644.86 88.7215C1641.95 88.6594 1639.09 91.7319 1639.16 94.8471C1639.22 97.9623 1641.68 100.527 1644.7 100.639C1647.8 100.756 1650.93 97.9584 1650.94 95.0721ZM1530.77 94.8743C1530.69 91.569 1528.1 88.9852 1524.88 88.993C1521.67 88.9969 1519.01 91.7319 1519.08 94.9557C1519.14 97.9429 1521.79 100.608 1524.76 100.659C1527.93 100.713 1530.84 97.908 1530.77 94.8743ZM1410.55 94.4436C1410.42 91.2237 1408.08 89.0008 1404.82 88.9969C1401.53 88.9969 1399.02 91.6 1399.1 94.9208C1399.18 98.2882 1401.71 100.705 1405.07 100.628C1408.24 100.554 1410.69 97.7838 1410.55 94.4436ZM1290.72 95.2699C1290.9 92.0345 1288.1 88.993 1284.85 88.8921C1281.72 88.7951 1279.04 91.4759 1279.03 94.7152C1279.01 97.9623 1281.59 100.631 1284.77 100.651C1287.69 100.67 1290.56 98.0748 1290.72 95.2699ZM1170.57 95.1769C1170.67 91.7164 1168.11 89.0241 1164.67 88.9736C1161.56 88.9271 1158.82 91.6466 1158.83 94.7734C1158.85 97.8692 1161.66 100.662 1164.76 100.655C1167.74 100.647 1170.48 98.0593 1170.57 95.1769ZM1050.41 94.8316C1050.35 91.4953 1047.78 88.927 1044.56 88.9658C1041.35 89.0046 1038.66 91.7746 1038.77 94.9286C1038.88 98.133 1041.67 100.713 1044.89 100.585C1047.98 100.461 1050.47 97.8653 1050.41 94.8316ZM930.713 95.1575C930.721 91.8716 927.855 88.8727 924.641 88.8068C921.73 88.7447 918.865 91.8211 918.93 94.9325C918.999 98.0477 921.457 100.612 924.48 100.724C927.575 100.841 930.705 98.0438 930.713 95.1575ZM811.114 94.8238C810.991 91.5147 807.946 88.5275 804.885 88.7021C802.02 88.8689 799.289 92.085 799.435 95.1187C799.588 98.2611 802.469 100.825 805.61 100.616C808.602 100.414 811.222 97.6597 811.114 94.8238ZM691.138 95.0721C691.146 91.7862 688.28 88.7874 685.066 88.7215C682.151 88.6594 679.286 91.7319 679.355 94.8471C679.424 97.9623 681.882 100.527 684.904 100.639C688 100.756 691.13 97.9584 691.138 95.0721ZM570.969 94.8743C570.889 91.569 568.3 88.9852 565.078 88.993C561.871 88.9969 559.213 91.7319 559.279 94.9557C559.34 97.9429 561.994 100.608 564.967 100.659C568.131 100.713 571.042 97.908 570.969 94.8743ZM450.755 94.4436C450.621 91.2237 448.278 89.0008 445.021 88.9969C441.737 88.9969 439.226 91.6 439.302 94.9208C439.383 98.2882 441.91 100.705 445.275 100.628C448.439 100.554 450.893 97.7838 450.755 94.4436ZM330.917 95.2699C331.098 92.0345 328.294 88.993 325.045 88.8921C321.922 88.7951 319.245 91.4759 319.23 94.7152C319.211 97.9623 321.792 100.631 324.972 100.651C327.891 100.67 330.76 98.0748 330.917 95.2699ZM210.768 95.1769C210.868 91.7164 208.314 89.0241 204.876 88.9736C201.762 88.9271 199.023 91.6466 199.035 94.7734C199.05 97.8692 201.862 100.662 204.961 100.655C207.941 100.647 210.683 98.0593 210.768 95.1769ZM90.6149 94.8316C90.5534 91.4953 87.9843 88.927 84.7582 88.9658C81.5474 89.0046 78.8627 91.7746 78.9741 94.9286C79.0817 98.133 81.8739 100.713 85.0962 100.585C88.1802 100.461 90.6686 97.8653 90.6149 94.8316Z" fill="url(#paint0_linear_77_2527)"/>
<defs>
<linearGradient id="paint0_linear_77_2527" x1="961" y1="87.4838" x2="961" y2="175.484" gradientUnits="userSpaceOnUse">
<stop stop-color="#FDD5A5"/>
<stop offset="1" stop-color="#F5B66F"/>
</linearGradient>
</defs>
</svg>
