<svg width="1920" height="87" viewBox="0 0 1920 87" fill="none" xmlns="http://www.w3.org/2000/svg">
<path d="M0.0193271 86.8817C0.0193271 86.8817 121.593 86.8817 121.647 86.8817C121.701 86.8817 121.755 86.8817 121.808 86.8817C121.647 86.8817 121.808 86.8817 121.812 86.9621C121.816 87.0426 235.351 86.9698 235.351 86.9698C277.31 86.9698 319.268 86.966 361.226 86.9698C398.918 86.9737 436.609 86.9929 474.301 86.9929C554.903 86.989 635.505 86.9776 716.108 86.9737C758.335 86.9699 800.558 86.9698 842.781 86.9698C876.467 86.9698 910.157 86.9737 943.842 86.9737C945.913 86.9737 947.983 86.9928 950.053 86.9698C963.453 86.9583 1045.14 86.8816 1081.45 86.8855C1081.5 86.8855 1081.55 86.8855 1081.61 86.8855C1081.61 86.9123 1081.61 86.9392 1081.61 86.966C1119.46 86.966 1157.3 86.9737 1195.15 86.9737C1237.11 86.9737 1279.07 86.9699 1321.03 86.9737C1358.72 86.9776 1396.41 86.9968 1434.1 86.9968C1514.7 86.9929 1595.3 86.9813 1675.91 86.9775C1718.13 86.9737 1760.36 86.9737 1802.58 86.9737C1836.27 86.9737 1869.96 86.9775 1903.64 86.9775C1906.85 86.9775 1919.99 86.8817 1919.99 86.8817C1919.99 86.8817 1919.99 84.5001 1919.99 78.3711C1918.21 79.2111 1917.14 79.7059 1916.08 80.2198C1903.47 86.3372 1890.59 86.7361 1877.68 81.497C1859.68 74.1944 1851.7 55.0444 1859.17 37.6357C1864.89 24.3039 1879.31 17.9066 1891.38 23.3451C1898.91 26.7356 1902.35 34.7208 1899.22 42.311C1898.44 44.2057 1896.52 45.6363 1894.55 47.9528C1893.18 39.1698 1890.18 35.5684 1884.78 35.0353C1879.28 34.4907 1874.03 37.7469 1872.38 43.1126C1870.77 48.3824 1871.66 53.4106 1874.89 57.9401C1881.52 67.2524 1897.3 68.871 1907.35 61.2884C1920.9 51.0633 1923.28 30.0455 1913.16 15.5746C1900.48 -2.5513 1868.92 -3.55612 1854.8 6.96046C1845.16 14.1441 1837.85 23.1304 1832.74 33.9461C1827.32 45.4139 1821.91 56.8701 1813.63 66.6618C1799.39 83.5106 1777.39 89.4247 1757.94 81.6504C1740.81 74.8043 1732.48 57.4301 1738.08 40.2208C1741.99 28.2276 1752.71 20.6258 1764.39 21.577C1776.05 22.5282 1782.86 31.7254 1779.27 41.9965C1778.58 43.9794 1776.69 45.5442 1774.81 48.0027C1772.93 38.9819 1769.92 35.4649 1764.56 35.0315C1755.95 34.3373 1749.7 42.5373 1751.92 51.5811C1754.73 63.0028 1768.44 69.2813 1780.73 64.7786C1796.43 59.0294 1803.97 38.6904 1796.73 22.0258C1786.84 -0.752491 1757.07 -4.15445 1739.84 4.16446C1726.77 10.4813 1718.71 21.7496 1712.37 34.437C1708.5 42.1844 1704.76 50.0431 1700.22 57.4032C1688.88 75.7976 1672.93 86.5865 1650.48 84.7263C1629.8 83.0119 1613.01 67.6551 1617.01 43.9257C1618.84 33.0179 1628.06 23.3835 1638.46 21.7343C1648.32 20.1733 1657.26 24.8294 1659.64 32.7609C1661.52 39.0509 1659.09 45.2911 1654.2 46.5798C1654.11 46.2001 1653.99 45.828 1653.95 45.4483C1653.17 39.0855 1649.44 35.1964 1643.9 34.9663C1638.01 34.7246 1632.9 38.9704 1631.8 45.0226C1630.47 52.3444 1634.3 60.0381 1640.98 63.4132C1650.48 68.2266 1662.22 66.4317 1669.95 58.991C1681.01 48.3402 1682.09 28.9409 1673.19 15.8891C1660.72 -2.40939 1629.49 -3.3874 1615.62 6.33526C1605.15 13.6646 1597.77 23.3643 1592.17 34.6902C1588.15 42.8058 1584.13 50.9828 1579.32 58.6305C1567.92 76.7527 1551.74 86.809 1529.76 84.665C1509.16 82.6553 1493.46 67.7855 1496.81 44.4588C1498.46 33.0103 1508.02 23.2339 1519.06 21.6422C1527.72 20.3957 1536.08 24.3845 1538.96 31.1463C1541.64 37.4325 1539.7 44.4243 1534.24 46.8828C1534.03 46.0313 1533.88 45.5442 1533.81 45.0418C1532.86 38.6482 1529.15 35.0545 1523.43 35.0047C1517.71 34.9548 1512.66 39.2619 1511.67 45.0264C1510.41 52.4019 1514.1 60.2797 1520.88 63.417C1529.58 67.4403 1538.17 67.076 1546.43 61.7794C1561.01 52.4287 1561.85 29.8269 1554.33 17.6572C1542.61 -1.31632 1514.68 -3.21097 1499.9 3.98801C1487.51 10.021 1479.56 20.553 1473.22 32.4273C1468.26 41.7089 1463.87 51.3548 1458.18 60.1723C1445.66 79.5793 1425.48 88.2702 1405.04 83.9746C1382.36 79.2072 1370.2 57.7331 1378.81 37.6587C1384.19 25.1439 1397.26 18.6698 1409.22 22.601C1417.6 25.3587 1421.91 33.2596 1419.21 41.6245C1418.53 43.7263 1416.53 45.4023 1415.14 47.274C1414.03 46.0083 1413.96 45.364 1413.84 44.7273C1412.81 38.8631 1409.43 35.4227 1404.3 35.0123C1398.8 34.5751 1393.69 38.0193 1392.02 43.2891C1389.74 50.442 1393.3 59.3017 1399.92 62.9683C1409.05 68.0272 1420.85 66.7845 1428.74 59.9384C1440.54 49.6941 1442.47 29.6236 1433.45 16.43C1422.22 0.00307655 1399.29 -2.98851 1383.29 2.63414C1368.6 7.79655 1359.93 19.7591 1352.86 33.0218C1347.41 43.243 1342.53 53.936 1335.81 63.2752C1323.38 80.542 1306.08 87.9481 1284.73 83.9017C1264.82 80.1277 1253.16 63.0105 1256.86 43.5153C1259.8 28.0089 1274.73 18.2671 1288.96 22.578C1297.87 25.2781 1302.5 34.2491 1298.93 42.4299C1298.13 44.267 1296.21 45.6171 1294.14 47.9414C1293.1 38.5792 1288.65 34.4063 1281.85 35.0008C1275.68 35.5416 1270.48 41.9888 1271.42 48.8043C1271.87 52.1104 1273.1 55.6428 1275 58.362C1281.03 66.9878 1296.11 68.4874 1305.87 62.1782C1320.08 52.9963 1321.48 33.2787 1316.2 21.6997C1310.75 9.77174 1301.03 3.10207 1288.1 1.06549C1273.41 -1.25107 1259.96 0.8277 1248.69 11.6051C1241.35 18.6353 1235.84 26.8161 1231.41 35.9098C1227.68 43.5728 1223.88 51.2743 1219.32 58.4502C1207.77 76.5992 1191.58 86.9701 1169.39 84.6343C1147.37 82.3139 1133.16 66.3128 1136.69 44.2939C1139.2 28.6456 1153.81 18.5509 1168.18 22.3403C1177.32 24.7527 1182.28 33.7735 1178.85 42.2113C1178.09 44.0945 1176.21 45.5289 1174.84 47.1704C1173.78 45.8856 1173.67 45.3755 1173.62 44.8615C1173.18 40.3089 1170.88 37.0757 1166.58 35.5301C1162.43 34.0381 1158.69 35.1773 1155.41 37.9732C1150.46 42.1998 1149.79 50.7604 1153.87 57.058C1160.04 66.5889 1175.58 69.0704 1185.71 62.1475C1196.83 54.5382 1201.84 40.1824 1197.78 26.2792C1194.33 14.4279 1186.49 6.10513 1174.68 2.71467C1155.04 -2.92332 1137.99 -0.395779 1124.34 16.2842C1118.66 23.2109 1114.61 31.4684 1109.89 39.1622C1104.2 48.4591 1099.4 58.4426 1092.75 66.9878C1090.16 70.313 1087.18 73.1972 1083.9 75.6289C1083.9 75.6595 1083.9 75.694 1083.91 75.7247C1073.18 83.7061 1060.2 86.6632 1045.15 83.8097C1025.24 80.0357 1013.58 62.9184 1017.28 43.4233C1020.22 27.9169 1035.15 18.175 1049.38 22.486C1058.29 25.1861 1062.92 34.1609 1059.35 42.3379C1058.56 44.175 1056.64 45.5251 1054.56 47.8493C1053.52 38.4872 1049.07 34.3143 1042.28 34.9087C1036.1 35.4495 1030.9 41.8968 1031.84 48.7122C1032.29 52.0183 1033.52 55.5507 1035.42 58.27C1041.45 66.8957 1056.53 68.3953 1066.29 62.0862C1080.5 52.9043 1081.9 33.1867 1076.62 21.6077C1071.17 9.67974 1061.45 3.01001 1048.52 0.973432C1033.83 -1.34313 1020.38 0.735643 1009.12 11.513C1001.77 18.5433 996.259 26.7202 991.83 35.8177C988.097 43.4808 984.307 51.1822 979.74 58.3582C975.692 64.7172 971.064 70.0944 965.822 74.3325C965.822 74.3325 961.129 78.0183 955.556 80.5151C955.08 80.7376 954.604 80.9178 954.127 81.1249C953.413 81.4088 952.691 81.6849 951.961 81.9073C951.504 82.0492 951.112 82.2449 950.767 82.475C939.921 86.295 928.902 85.9729 917.857 81.4932C899.856 74.1906 891.883 55.0406 899.349 37.6319C905.068 24.3001 919.485 17.9028 931.56 23.3413C939.088 26.7318 942.529 34.717 939.399 42.3072C938.619 44.2018 936.699 45.6325 934.729 47.949C933.357 39.166 930.362 35.5646 924.962 35.0315C919.462 34.4869 914.204 37.7431 912.561 43.1088C910.948 48.3786 911.839 53.4067 915.065 57.9363C921.697 67.2486 937.478 68.8671 947.529 61.2846C961.083 51.0595 963.456 30.0417 953.34 15.5708C940.666 -2.55511 909.104 -3.55998 894.986 6.9566C885.342 14.1402 878.03 23.1265 872.922 33.9422C867.507 45.41 862.088 56.8662 853.811 66.6579C839.571 83.5067 817.575 89.4208 798.123 81.6466C780.994 74.8004 772.668 57.4262 778.267 40.2169C782.173 28.2237 792.9 20.622 804.575 21.5732C816.239 22.5244 823.048 31.7216 819.457 41.9927C818.762 43.9756 816.873 45.5404 814.998 47.9989C813.117 38.9781 810.102 35.4611 804.744 35.0277C796.141 34.3335 789.881 42.5335 792.109 51.5773C794.92 62.999 808.623 69.2775 820.917 64.7748C836.621 59.0255 844.156 38.6866 836.92 22.0219C827.031 -0.756353 797.259 -4.15831 780.03 4.1606C766.953 10.4775 758.895 21.7458 752.558 34.4332C748.687 42.1806 744.946 50.0393 740.411 57.3993C729.073 75.7938 713.116 86.5827 690.671 84.7225C669.994 83.0081 653.203 67.6513 657.201 43.9219C659.036 33.0141 668.25 23.3797 678.658 21.7305C688.509 20.1695 697.454 24.8256 699.831 32.7571C701.717 39.0471 699.289 45.2873 694.393 46.576C694.304 46.1963 694.185 45.8242 694.139 45.4445C693.356 39.0817 689.634 35.1926 684.096 34.9625C678.209 34.7208 673.097 38.9666 671.994 45.0188C670.662 52.3405 674.499 60.0342 681.17 63.4094C690.679 68.2227 702.416 66.4278 710.143 58.9872C721.2 48.3364 722.279 28.9371 713.384 15.8853C700.918 -2.4132 669.686 -3.39121 655.81 6.33145C645.349 13.6608 637.967 23.3605 632.36 34.6863C628.342 42.8019 624.329 50.979 619.517 58.6267C608.118 76.7488 591.941 86.8051 569.958 84.6611C549.357 82.6514 533.657 67.7817 537.01 44.455C538.653 33.0064 548.216 23.2301 559.258 21.6384C567.922 20.3919 576.276 24.3807 579.16 31.1424C581.841 37.4286 579.901 44.4205 574.436 46.8789C574.233 46.0275 574.079 45.5404 574.002 45.038C573.057 38.6444 569.347 35.0507 563.621 35.0008C557.902 34.9509 552.852 39.2581 551.865 45.0226C550.605 52.3981 554.296 60.2759 561.075 63.4132C569.777 67.4365 578.369 67.0722 586.626 61.7755C601.205 52.4249 602.046 29.8231 594.526 17.6534C582.809 -1.32012 554.872 -3.21478 540.09 3.98421C527.704 10.0172 519.758 20.5491 513.417 32.4234C508.459 41.705 504.061 51.351 498.373 60.1685C485.849 79.5754 465.678 88.2664 445.234 83.9708C422.552 79.2034 410.389 57.7292 419.007 37.6549C424.38 25.1401 437.45 18.666 449.409 22.5972C457.797 25.3549 462.106 33.2557 459.399 41.6206C458.719 43.7224 456.726 45.3985 455.335 47.2702C454.221 46.0045 454.148 45.3601 454.037 44.7235C453.008 38.8592 449.624 35.4188 444.497 35.0085C438.997 34.5712 433.886 38.0154 432.207 43.2852C429.934 50.4382 433.49 59.2979 440.111 62.9645C449.248 68.0233 461.046 66.7807 468.935 59.9346C480.737 49.6903 482.665 29.6198 473.647 16.4261C462.417 -0.000785828 439.485 -2.99237 423.482 2.63028C408.795 7.79268 400.127 19.7552 393.053 33.0179C387.603 43.2392 382.729 53.9322 376.004 63.2713C363.576 80.5381 346.274 87.9443 324.921 83.8979C305.011 80.1239 293.355 63.0067 297.05 43.5115C299.991 28.0051 314.924 18.2633 329.149 22.5742C338.063 25.2743 342.695 34.2452 339.127 42.4261C338.328 44.2632 336.408 45.6133 334.338 47.9375C333.297 38.5754 328.846 34.4025 322.048 34.997C315.876 35.5378 310.676 41.985 311.609 48.8005C312.062 52.1066 313.291 55.6389 315.192 58.3582C321.226 66.9839 336.3 68.4836 346.067 62.1744C360.277 52.9925 361.675 33.2749 356.39 21.6959C350.944 9.76793 341.224 3.09821 328.297 1.06163C313.599 -1.25494 300.149 0.823838 288.888 11.6012C281.545 18.6315 276.03 26.8123 271.602 35.906C267.869 43.569 264.078 51.2705 259.508 58.4464C247.959 76.5954 231.771 86.9662 209.588 84.6305C187.562 82.3101 173.356 66.3089 176.885 44.2901C179.393 28.6417 194.007 18.5471 208.371 22.3364C217.511 24.7489 222.477 33.7696 219.047 42.2074C218.279 44.0906 216.397 45.525 215.03 47.1666C213.97 45.8817 213.863 45.3717 213.813 44.8577C213.375 40.3051 211.071 37.0719 206.773 35.5263C202.621 34.0343 198.88 35.1734 195.604 37.9694C190.658 42.196 189.982 50.7565 194.061 57.0542C200.236 66.5851 215.775 69.0665 225.899 62.1437C237.025 54.5343 242.033 40.1786 237.978 26.2754C234.521 14.4241 226.682 6.10133 214.877 2.71086C195.236 -2.92713 178.187 -0.399641 164.53 16.2804C158.858 23.2071 154.802 31.4646 150.086 39.1583C144.39 48.4553 139.597 58.4387 132.945 66.9839C130.357 70.3092 127.369 73.1934 124.093 75.6251C124.097 75.6557 124.097 75.6902 124.101 75.7209C113.37 83.7023 100.389 86.6594 85.3416 83.8059C65.432 80.0319 53.7758 62.9146 57.4705 43.4195C60.4124 27.9131 75.3445 18.1712 89.57 22.4822C98.484 25.1823 103.116 34.157 99.5479 42.334C98.749 44.1712 96.8287 45.5212 94.7587 47.8454C93.7179 38.4833 89.2666 34.3105 82.4688 34.9049C76.297 35.4457 71.0968 41.893 72.0301 48.7084C72.4833 52.0145 73.7123 55.5469 75.6134 58.2662C81.6508 66.8919 96.7212 68.3915 106.488 62.0824C120.698 52.9005 122.096 33.1828 116.811 21.6039C111.365 9.67587 101.645 3.00615 88.7174 0.969569C74.0234 -1.34699 60.5698 0.731781 49.3092 11.5092C41.966 18.5394 36.451 26.7164 32.0228 35.8139C28.2897 43.477 24.499 51.1784 19.9326 58.3544C15.8846 64.7134 11.2567 70.0906 6.01435 74.3287C6.01435 74.3287 3.51797 76.3078 0 78.3443M35.5561 85.2135C32.3416 85.1483 29.4765 82.1835 29.4841 78.9349C29.4918 76.0814 32.6219 73.3161 35.7174 73.4312C38.74 73.5424 41.1979 76.0776 41.2671 79.1574C41.3362 82.2334 38.4711 85.2748 35.5561 85.2135ZM155.317 85.317C152.256 85.4896 149.21 82.5364 149.087 79.2648C148.98 76.4611 151.599 73.738 154.591 73.5386C157.733 73.3315 160.613 75.8666 160.767 78.9733C160.909 81.9725 158.178 85.1521 155.317 85.317ZM275.135 85.2978C271.921 85.2326 269.056 82.2679 269.063 79.0193C269.071 76.1658 272.201 73.4005 275.297 73.5156C278.319 73.6268 280.777 76.162 280.842 79.2418C280.911 82.3216 278.046 85.3592 275.135 85.2978ZM395.123 85.0294C391.897 85.037 389.312 82.4827 389.231 79.2149C389.158 76.2157 392.069 73.4427 395.234 73.4964C398.207 73.5463 400.86 76.1812 400.922 79.1344C400.987 82.3216 398.326 85.0255 395.123 85.0294ZM515.176 85.0255C511.919 85.0217 509.576 82.824 509.446 79.6407C509.307 76.3384 511.762 73.5999 514.926 73.5271C518.291 73.4504 520.818 75.8398 520.898 79.1689C520.975 82.452 518.463 85.0255 515.176 85.0255ZM635.152 85.1291C631.903 85.0294 629.103 82.0225 629.28 78.8238C629.433 76.0508 632.306 73.4849 635.225 73.5041C638.405 73.5232 640.986 76.162 640.966 79.3722C640.955 82.5747 638.274 85.225 635.152 85.1291ZM755.324 85.0485C751.886 84.9986 749.332 82.3369 749.432 78.9158C749.517 76.0661 752.259 73.5079 755.239 73.5003C758.338 73.4926 761.15 76.254 761.165 79.3146C761.177 82.406 758.438 85.0945 755.324 85.0485ZM875.442 85.0562C872.215 85.0946 869.646 82.5555 869.585 79.2571C869.531 76.2579 872.02 73.692 875.104 73.5693C878.326 73.4427 881.118 75.9932 881.225 79.1613C881.337 82.2794 878.648 85.0179 875.442 85.0562ZM995.356 85.2135C992.141 85.1483 989.276 82.1835 989.284 78.9349C989.292 76.0814 992.422 73.3161 995.517 73.4312C998.54 73.5424 1001 76.0776 1001.07 79.1574C1001.13 82.2334 998.267 85.2748 995.356 85.2135ZM1115.11 85.317C1112.05 85.4896 1109.01 82.5364 1108.88 79.2648C1108.77 76.4611 1111.39 73.738 1114.39 73.5386C1117.53 73.3315 1120.41 75.8666 1120.56 78.9733C1120.71 81.9725 1117.98 85.1521 1115.11 85.317ZM1234.93 85.2978C1231.72 85.2326 1228.85 82.2679 1228.86 79.0193C1228.87 76.1658 1232 73.4005 1235.09 73.5156C1238.11 73.6268 1240.57 76.162 1240.64 79.2418C1240.71 82.3216 1237.85 85.3592 1234.93 85.2978ZM1354.92 85.0294C1351.7 85.037 1349.11 82.4827 1349.03 79.2149C1348.95 76.2157 1351.86 73.4427 1355.03 73.4964C1358 73.5463 1360.66 76.1812 1360.72 79.1344C1360.78 82.3216 1358.12 85.0255 1354.92 85.0294ZM1474.97 85.0255C1471.72 85.0217 1469.37 82.824 1469.24 79.6407C1469.1 76.3384 1471.56 73.5999 1474.72 73.5271C1478.09 73.4504 1480.61 75.8398 1480.69 79.1689C1480.77 82.452 1478.26 85.0255 1474.97 85.0255ZM1594.95 85.1291C1591.7 85.0294 1588.9 82.0225 1589.08 78.8238C1589.24 76.0508 1592.1 73.4849 1595.02 73.5041C1598.2 73.5232 1600.78 76.162 1600.76 79.3722C1600.75 82.5747 1598.07 85.225 1594.95 85.1291ZM1715.12 85.0485C1711.68 84.9986 1709.13 82.3369 1709.23 78.9158C1709.31 76.0661 1712.05 73.5079 1715.03 73.5003C1718.13 73.4926 1720.94 76.254 1720.96 79.3146C1720.97 82.406 1718.23 85.0945 1715.12 85.0485ZM1835.24 85.0562C1832.01 85.0946 1829.44 82.5555 1829.38 79.2571C1829.33 76.2579 1831.81 73.692 1834.9 73.5693C1838.12 73.4427 1840.91 75.9932 1841.02 79.1613C1841.13 82.2794 1838.45 85.0179 1835.24 85.0562Z" fill="url(#paint0_linear_60_2628)"/>
<defs>
<linearGradient id="paint0_linear_60_2628" x1="959.997" y1="0" x2="959.997" y2="87" gradientUnits="userSpaceOnUse">
<stop stop-color="#F5B46B"/>
<stop offset="1" stop-color="#FDD5A5"/>
</linearGradient>
</defs>
</svg>
