<svg width="1945" height="493" viewBox="0 0 1945 493" fill="none" xmlns="http://www.w3.org/2000/svg">
<rect width="1945" height="493" fill="#190002"/>
<path d="M15 20.9035H12.9035V23V470.693V472.789H15H461.968H464.065V470.693V23V20.9035H461.968H15ZM443.394 452.459H24.518V41.234H443.394V452.459Z" fill="#1E0507" stroke="#1E0507" stroke-width="4.19295"/>
<path d="M194.04 28.9721H191.944V31.0686V212.783H15.8354H13.6788L13.7398 214.939C13.7431 215.056 13.7527 215.157 13.7615 215.232C13.7684 215.291 13.7769 215.35 13.7809 215.378V231.058V233.155H15.8774H210.476H212.573V231.058V31.0686V28.9721H210.476H194.04Z" fill="#1E0507" stroke="#1E0507" stroke-width="4.19295"/>
<path d="M87.8267 225.062H89.9231V222.965V106.262H202.248H204.345V104.165V88.0112V85.9148H202.248H71.3735H69.2771V88.0112V222.965V225.062H71.3735H87.8267Z" fill="#1E0507" stroke="#1E0507" stroke-width="4.19295"/>
<path d="M149.154 169.7H151.251V167.604V96.0884V93.9919H149.154H132.701H130.605V96.0884V149.353H79.6018H77.5053V151.45V167.604V169.7H79.6018H149.154Z" fill="#1E0507" stroke="#1E0507" stroke-width="4.19295"/>
<path d="M453.728 233.139H455.825V231.042V214.888V212.792H453.728H275.989V31.0811V28.9846H273.893H257.44H255.343V31.0811V231.042V233.139H257.44H453.728Z" fill="#1E0507" stroke="#1E0507" stroke-width="4.19295"/>
<path d="M396.547 225.062H398.643V222.965V88.0112V85.9148H396.547H265.668H263.571V88.0112V104.165V106.262H265.668H377.997V222.965V225.062H380.094H396.547Z" fill="#1E0507" stroke="#1E0507" stroke-width="4.19295"/>
<path d="M388.318 169.7H390.415V167.604V151.45V149.353H388.318H337.315V96.0884V93.9919H335.219H318.766H316.669V96.0884V167.604V169.7H318.766H388.318Z" fill="#1E0507" stroke="#1E0507" stroke-width="4.19295"/>
<path d="M273.893 464.729H275.989V462.632V280.913H453.728H455.825V278.817V262.667V260.571H453.728H257.44H255.343V262.667V462.632V464.729H257.44H273.893Z" fill="#1E0507" stroke="#1E0507" stroke-width="4.19295"/>
<path d="M396.547 407.798H398.643V405.702V270.744V268.647H396.547H380.094H377.997V270.744V387.451H265.668H263.571V389.548V405.702V407.798H265.668H396.547Z" fill="#1E0507" stroke="#1E0507" stroke-width="4.19295"/>
<path d="M335.219 399.721H337.315V397.625V344.36H388.318H390.415V342.263V326.109V324.013H388.318H318.766H316.669V326.109V397.625V399.721H318.766H335.219Z" fill="#1E0507" stroke="#1E0507" stroke-width="4.19295"/>
<path d="M15.8762 260.578H13.7797V262.675V278.812V280.909H15.8762H191.942V462.624V464.72H194.039H210.475H212.572V462.624V262.675V260.578H210.475H15.8762Z" fill="#1E0507" stroke="#1E0507" stroke-width="4.19295"/>
<path d="M202.248 407.798H204.345V405.702V389.548V387.451H202.248H89.9231V270.744V268.647H87.8267H71.3735H69.2771V270.744V405.702V407.798H71.3735H202.248Z" fill="#1E0507" stroke="#1E0507" stroke-width="4.19295"/>
<path d="M149.154 399.721H151.251V397.625V326.109V324.013H149.154H79.6018H77.5053V326.109V342.263V344.36H79.6018H130.605V397.625V399.721H132.701H149.154Z" fill="#1E0507" stroke="#1E0507" stroke-width="4.19295"/>
<path d="M951.357 472.806H953.453V470.709V23.0042V20.9077H951.357H495.361H493.264V23.0042V470.709V472.806H495.361H951.357ZM932.807 452.459H513.91V41.2546H932.807V452.459Z" fill="#1E0507" stroke="#1E0507" stroke-width="4.19295"/>
<path d="M699.876 233.139H701.972V231.042V31.0811V28.9846H699.876H683.423H681.326V31.0811V212.792H503.587H501.491V214.888V231.042V233.139H503.587H699.876Z" fill="#1E0507" stroke="#1E0507" stroke-width="4.19295"/>
<path d="M577.229 225.062H579.325V222.965V106.262H691.65H693.746V104.165V88.0112V85.9148H691.65H560.775H558.679V88.0112V222.965V225.062H560.775H577.229Z" fill="#1E0507" stroke="#1E0507" stroke-width="4.19295"/>
<path d="M638.55 169.7H640.647V167.603V96.0879V93.9914H638.55H622.097H620.001V96.0879V149.353H569.002H566.905V151.449V167.603V169.7H569.002H638.55Z" fill="#1E0507" stroke="#1E0507" stroke-width="4.19295"/>
<path d="M943.134 233.139H945.231V231.042V214.888V212.792H943.134H765.391V31.0811V28.9846H763.295H746.842H744.745V31.0811V231.042V233.139H746.842H943.134Z" fill="#1E0507" stroke="#1E0507" stroke-width="4.19295"/>
<path d="M885.947 225.062H888.043V222.965V88.0112V85.9148H885.947H755.068H752.971V88.0112V104.165V106.262H755.068H867.397V222.965V225.062H869.493H885.947Z" fill="#1E0507" stroke="#1E0507" stroke-width="4.19295"/>
<path d="M877.72 169.7H879.817V167.603V151.449V149.353H877.72H826.717V96.0879V93.9914H824.621H808.168H806.071V96.0879V167.603V169.7H808.168H877.72Z" fill="#1E0507" stroke="#1E0507" stroke-width="4.19295"/>
<path d="M763.295 464.729H765.391V462.632V280.913H943.134H945.231V278.817V262.667V260.571H943.134H746.842H744.745V262.667V462.632V464.729H746.842H763.295Z" fill="#1E0507" stroke="#1E0507" stroke-width="4.19295"/>
<path d="M885.947 407.798H888.043V405.702V270.744V268.647H885.947H869.493H867.397V270.744V387.451H755.068H752.971V389.548V405.702V407.798H755.068H885.947Z" fill="#1E0507" stroke="#1E0507" stroke-width="4.19295"/>
<path d="M824.621 399.721H826.717V397.624V344.359H877.72H879.817V342.263V326.109V324.012H877.72H808.168H806.071V326.109V397.624V399.721H808.168H824.621Z" fill="#1E0507" stroke="#1E0507" stroke-width="4.19295"/>
<path d="M699.876 464.729H701.972V462.632V262.667V260.571H699.876H503.587H501.491V262.667V278.817V280.913H503.587H681.326V462.632V464.729H683.423H699.876Z" fill="#1E0507" stroke="#1E0507" stroke-width="4.19295"/>
<path d="M691.65 407.798H693.746V405.702V389.548V387.451H691.65H579.325V270.744V268.647H577.229H560.775H558.679V270.744V405.702V407.798H560.775H691.65Z" fill="#1E0507" stroke="#1E0507" stroke-width="4.19295"/>
<path d="M638.55 399.721H640.647V397.624V326.109V324.012H638.55H569.002H566.905V326.109V342.263V344.359H569.002H620.001V397.624V399.721H622.097H638.55Z" fill="#1E0507" stroke="#1E0507" stroke-width="4.19295"/>
<path d="M1440.76 472.806H1442.86V470.709V23.0042V20.9077H1440.76H984.763H982.666V23.0042V470.709V472.806H984.763H1440.76ZM1422.21 452.459H1003.31V41.2546H1422.21V452.459Z" fill="#1E0507" stroke="#1E0507" stroke-width="4.19295"/>
<path d="M1189.28 233.139H1191.38V231.042V31.0811V28.9846H1189.28H1172.83H1170.73V31.0811V212.792H992.989H990.893V214.888V231.042V233.139H992.989H1189.28Z" fill="#1E0507" stroke="#1E0507" stroke-width="4.19295"/>
<path d="M1066.63 225.062H1068.73V222.965V106.262H1181.06H1183.15V104.165V88.0112V85.9148H1181.06H1050.18H1048.08V88.0112V222.965V225.062H1050.18H1066.63Z" fill="#1E0507" stroke="#1E0507" stroke-width="4.19295"/>
<path d="M1127.96 169.7H1130.05V167.603V96.0879V93.9914H1127.96H1111.5H1109.41V96.0879V149.353H1058.4H1056.31V151.449V167.603V169.7H1058.4H1127.96Z" fill="#1E0507" stroke="#1E0507" stroke-width="4.19295"/>
<path d="M1432.53 233.139H1434.63V231.042V214.888V212.792H1432.53H1254.8V31.0811V28.9846H1252.7H1236.25H1234.15V31.0811V231.042V233.139H1236.25H1432.53Z" fill="#1E0507" stroke="#1E0507" stroke-width="4.19295"/>
<path d="M1375.34 225.062H1377.44V222.965V88.0112V85.9148H1375.34H1244.47H1242.38V88.0112V104.165V106.262H1244.47H1356.8V222.965V225.062H1358.9H1375.34Z" fill="#1E0507" stroke="#1E0507" stroke-width="4.19295"/>
<path d="M1367.12 169.7H1369.22V167.603V151.449V149.353H1367.12H1316.12V96.0879V93.9914H1314.02H1297.57H1295.47V96.0879V167.603V169.7H1297.57H1367.12Z" fill="#1E0507" stroke="#1E0507" stroke-width="4.19295"/>
<path d="M1252.7 464.729H1254.8V462.632V280.913H1432.53H1434.63V278.817V262.667V260.571H1432.53H1236.25H1234.15V262.667V462.632V464.729H1236.25H1252.7Z" fill="#1E0507" stroke="#1E0507" stroke-width="4.19295"/>
<path d="M1375.34 407.798H1377.44V405.702V270.744V268.647H1375.34H1358.9H1356.8V270.744V387.451H1244.47H1242.38V389.548V405.702V407.798H1244.47H1375.34Z" fill="#1E0507" stroke="#1E0507" stroke-width="4.19295"/>
<path d="M1314.02 399.721H1316.12V397.624V344.359H1367.12H1369.22V342.263V326.109V324.012H1367.12H1297.57H1295.47V326.109V397.624V399.721H1297.57H1314.02Z" fill="#1E0507" stroke="#1E0507" stroke-width="4.19295"/>
<path d="M1189.28 464.729H1191.38V462.632V262.667V260.571H1189.28H992.989H990.893V262.667V278.817V280.913H992.989H1170.73V462.632V464.729H1172.83H1189.28Z" fill="#1E0507" stroke="#1E0507" stroke-width="4.19295"/>
<path d="M1181.06 407.798H1183.15V405.702V389.548V387.451H1181.06H1068.73V270.744V268.647H1066.63H1050.18H1048.08V270.744V405.702V407.798H1050.18H1181.06Z" fill="#1E0507" stroke="#1E0507" stroke-width="4.19295"/>
<path d="M1127.96 399.721H1130.05V397.624V326.109V324.012H1127.96H1058.4H1056.31V326.109V342.263V344.359H1058.4H1109.41V397.624V399.721H1111.5H1127.96Z" fill="#1E0507" stroke="#1E0507" stroke-width="4.19295"/>
<path d="M1930.16 472.806H1932.25V470.709V23.0042V20.9077H1930.16H1474.16H1472.07V23.0042V470.709V472.806H1474.16H1930.16ZM1911.61 452.459H1492.71V41.2546H1911.61V452.459Z" fill="#1E0507" stroke="#1E0507" stroke-width="4.19295"/>
<path d="M1678.68 233.139H1680.77V231.042V31.0811V28.9846H1678.68H1662.22H1660.13V31.0811V212.792H1482.39H1480.29V214.888V231.042V233.139H1482.39H1678.68Z" fill="#1E0507" stroke="#1E0507" stroke-width="4.19295"/>
<path d="M1556.03 225.062H1558.12V222.965V106.262H1670.45H1672.55V104.165V88.0112V85.9148H1670.45H1539.57H1537.48V88.0112V222.965V225.062H1539.57H1556.03Z" fill="#1E0507" stroke="#1E0507" stroke-width="4.19295"/>
<path d="M1617.35 169.7H1619.45V167.603V96.0879V93.9914H1617.35H1600.9H1598.8V96.0879V149.353H1547.8H1545.7V151.449V167.603V169.7H1547.8H1617.35Z" fill="#1E0507" stroke="#1E0507" stroke-width="4.19295"/>
<path d="M1921.93 233.139H1924.03V231.042V214.888V212.792H1921.93H1744.19V31.0811V28.9846H1742.1H1725.64H1723.55V31.0811V231.042V233.139H1725.64H1921.93Z" fill="#1E0507" stroke="#1E0507" stroke-width="4.19295"/>
<path d="M1864.74 225.062H1866.84V222.965V88.0112V85.9148H1864.74H1733.87H1731.77V88.0112V104.165V106.262H1733.87H1846.19V222.965V225.062H1848.29H1864.74Z" fill="#1E0507" stroke="#1E0507" stroke-width="4.19295"/>
<path d="M1856.52 169.7H1858.61V167.603V151.449V149.353H1856.52H1805.52V96.0879V93.9914H1803.42H1786.97H1784.87V96.0879V167.603V169.7H1786.97H1856.52Z" fill="#1E0507" stroke="#1E0507" stroke-width="4.19295"/>
<path d="M1742.1 464.729H1744.19V462.632V280.913H1921.93H1924.03V278.817V262.667V260.571H1921.93H1725.64H1723.55V262.667V462.632V464.729H1725.64H1742.1Z" fill="#1E0507" stroke="#1E0507" stroke-width="4.19295"/>
<path d="M1864.74 407.798H1866.84V405.702V270.744V268.647H1864.74H1848.29H1846.19V270.744V387.451H1733.87H1731.77V389.548V405.702V407.798H1733.87H1864.74Z" fill="#1E0507" stroke="#1E0507" stroke-width="4.19295"/>
<path d="M1803.42 399.721H1805.52V397.624V344.359H1856.52H1858.61V342.263V326.109V324.012H1856.52H1786.97H1784.87V326.109V397.624V399.721H1786.97H1803.42Z" fill="#1E0507" stroke="#1E0507" stroke-width="4.19295"/>
<path d="M1678.68 464.729H1680.77V462.632V262.667V260.571H1678.68H1482.39H1480.29V262.667V278.817V280.913H1482.39H1660.13V462.632V464.729H1662.22H1678.68Z" fill="#1E0507" stroke="#1E0507" stroke-width="4.19295"/>
<path d="M1670.45 407.798H1672.55V405.702V389.548V387.451H1670.45H1558.12V270.744V268.647H1556.03H1539.57H1537.48V270.744V405.702V407.798H1539.57H1670.45Z" fill="#1E0507" stroke="#1E0507" stroke-width="4.19295"/>
<path d="M1617.35 399.721H1619.45V397.624V326.109V324.012H1617.35H1547.8H1545.7V326.109V342.263V344.359H1547.8H1598.8V397.624V399.721H1600.9H1617.35Z" fill="#1E0507" stroke="#1E0507" stroke-width="4.19295"/>
</svg>
