<svg width="1920" height="87" viewBox="0 0 1920 87" fill="none" xmlns="http://www.w3.org/2000/svg">
<path d="M0.0253696 86.8838C0.0253696 86.8838 121.599 86.8838 121.653 86.8838C121.707 86.8838 121.761 86.8838 121.815 86.8838C121.653 86.8838 121.815 86.8838 121.818 86.9643C121.822 87.0447 235.357 86.9719 235.357 86.9719C277.316 86.9719 319.274 86.9681 361.232 86.9719C398.924 86.9758 436.615 86.995 474.307 86.995C554.909 86.9911 635.511 86.9797 716.114 86.9758C758.341 86.972 800.564 86.9719 842.788 86.9719C876.473 86.9719 910.163 86.9758 943.849 86.9758C945.919 86.9758 947.989 86.995 950.059 86.9719C963.459 86.9604 1045.14 86.8838 1081.45 86.8876C1081.51 86.8876 1081.56 86.8876 1081.61 86.8876C1081.61 86.9144 1081.62 86.9413 1081.62 86.9682C1119.46 86.9682 1157.31 86.9758 1195.16 86.9758C1237.12 86.9758 1279.07 86.972 1321.03 86.9758C1358.72 86.9797 1396.41 86.9989 1434.11 86.9989C1514.71 86.9951 1595.31 86.9835 1675.91 86.9796C1718.14 86.9758 1760.36 86.9758 1802.59 86.9758C1836.27 86.9758 1869.96 86.9796 1903.65 86.9796C1906.85 86.9796 1920 86.8838 1920 86.8838C1920 86.8838 1920 84.5022 1920 78.3733C1918.21 79.2132 1917.15 79.708 1916.09 80.2219C1903.48 86.3394 1890.6 86.7382 1877.68 81.4991C1859.69 74.1966 1851.71 55.0466 1859.18 37.6378C1864.9 24.3061 1879.31 17.9087 1891.39 23.3472C1898.92 26.7377 1902.36 34.723 1899.23 42.3132C1898.45 44.2078 1896.53 45.6384 1894.56 47.955C1893.18 39.172 1890.19 35.5706 1884.79 35.0375C1879.29 34.4928 1874.03 37.7491 1872.39 43.1148C1870.78 48.3845 1871.67 53.4127 1874.89 57.9423C1881.52 67.2546 1897.31 68.8731 1907.36 61.2906C1920.91 51.0655 1923.28 30.0476 1913.16 15.5768C1900.49 -2.54917 1868.93 -3.55398 1854.81 6.9626C1845.17 14.1462 1837.85 23.1325 1832.75 33.9482C1827.33 45.416 1821.91 56.8722 1813.63 66.6639C1799.39 83.5127 1777.4 89.4268 1757.94 81.6525C1740.81 74.8064 1732.49 57.4322 1738.09 40.2229C1741.99 28.2297 1752.72 20.628 1764.39 21.5791C1776.06 22.5303 1782.87 31.7275 1779.28 41.9987C1778.58 43.9815 1776.69 45.5464 1774.82 48.0048C1772.94 38.984 1769.92 35.467 1764.56 35.0337C1755.96 34.3395 1749.7 42.5394 1751.93 51.5832C1754.74 63.0049 1768.45 69.2835 1780.74 64.7807C1796.44 59.0315 1803.98 38.6926 1796.74 22.0279C1786.85 -0.750354 1757.08 -4.15232 1739.85 4.1666C1726.77 10.4834 1718.72 21.7517 1712.37 34.4391C1708.5 42.1866 1704.76 50.0453 1700.23 57.4053C1688.89 75.7998 1672.93 86.5886 1650.49 84.7285C1629.81 83.0141 1613.02 67.6572 1617.01 43.9278C1618.85 33.02 1628.06 23.3856 1638.47 21.7364C1648.32 20.1754 1657.27 24.8315 1659.64 32.7631C1661.53 39.0531 1659.1 45.2932 1654.2 46.5819C1654.12 46.2022 1654 45.8302 1653.95 45.4505C1653.17 39.0876 1649.45 35.1985 1643.91 34.9684C1638.02 34.7268 1632.91 38.9726 1631.81 45.0248C1630.47 52.3465 1634.31 60.0402 1640.98 63.4154C1650.49 68.2287 1662.23 66.4338 1669.96 58.9932C1681.01 48.3424 1682.09 28.943 1673.2 15.8913C1660.73 -2.40726 1629.49 -3.38527 1615.62 6.33739C1605.16 13.6668 1597.78 23.3664 1592.17 34.6923C1588.15 42.8079 1584.14 50.985 1579.32 58.6327C1567.93 76.7548 1551.75 86.8111 1529.77 84.6671C1509.17 82.6574 1493.47 67.7877 1496.82 44.461C1498.46 33.0124 1508.02 23.236 1519.07 21.6443C1527.73 20.3978 1536.08 24.3867 1538.97 31.1484C1541.65 37.4346 1539.71 44.4265 1534.24 46.8849C1534.04 46.0335 1533.89 45.5463 1533.81 45.0439C1532.87 38.6503 1529.16 35.0567 1523.43 35.0068C1517.71 34.9569 1512.66 39.264 1511.68 45.0286C1510.42 52.404 1514.11 60.2818 1520.89 63.4192C1529.59 67.4425 1538.18 67.0781 1546.44 61.7815C1561.02 52.4309 1561.86 29.829 1554.34 17.6594C1542.62 -1.31418 1514.68 -3.20884 1499.9 3.99015C1487.52 10.0232 1479.57 20.5551 1473.23 32.4294C1468.27 41.711 1463.87 51.357 1458.19 60.1745C1445.66 79.5814 1425.49 88.2723 1405.05 83.9767C1382.36 79.2094 1370.2 57.7352 1378.82 37.6609C1384.19 25.1461 1397.26 18.6719 1409.22 22.6032C1417.61 25.3608 1421.92 33.2617 1419.21 41.6266C1418.53 43.7284 1416.54 45.4044 1415.15 47.2761C1414.03 46.0104 1413.96 45.3661 1413.85 44.7295C1412.82 38.8652 1409.43 35.4248 1404.31 35.0145C1398.81 34.5772 1393.7 38.0214 1392.02 43.2912C1389.75 50.4442 1393.31 59.3038 1399.92 62.9705C1409.06 68.0293 1420.86 66.7866 1428.75 59.9405C1440.55 49.6962 1442.48 29.6258 1433.46 16.4321C1422.23 0.00521431 1399.3 -2.98637 1383.29 2.63628C1368.61 7.79868 1359.94 19.7612 1352.87 33.0239C1347.42 43.2452 1342.54 53.9382 1335.82 63.2773C1323.39 80.5441 1306.09 87.9502 1284.73 83.9039C1264.82 80.1299 1253.17 63.0126 1256.86 43.5175C1259.8 28.0111 1274.74 18.2692 1288.96 22.5802C1297.88 25.2803 1302.51 34.2512 1298.94 42.432C1298.14 44.2692 1296.22 45.6193 1294.15 47.9435C1293.11 38.5814 1288.66 34.4084 1281.86 35.0029C1275.69 35.5437 1270.49 41.991 1271.42 48.8064C1271.88 52.1125 1273.1 55.6449 1275.01 58.3642C1281.04 66.9899 1296.11 68.4895 1305.88 62.1803C1320.09 52.9985 1321.49 33.2808 1316.2 21.7019C1310.76 9.77387 1301.04 3.1042 1288.11 1.06762C1273.42 -1.24894 1259.96 0.829836 1248.7 11.6072C1241.36 18.6374 1235.84 26.8183 1231.41 35.9119C1227.68 43.575 1223.89 51.2764 1219.32 58.4524C1207.78 76.6013 1191.59 86.9722 1169.4 84.6365C1147.37 82.3161 1133.17 66.3149 1136.7 44.296C1139.21 28.6477 1153.82 18.5531 1168.18 22.3424C1177.32 24.7548 1182.29 33.7756 1178.86 42.2134C1178.09 44.0966 1176.21 45.531 1174.84 47.1726C1173.78 45.8877 1173.68 45.3776 1173.63 44.8637C1173.19 40.3111 1170.88 37.0779 1166.59 35.5322C1162.43 34.0403 1158.69 35.1794 1155.42 37.9754C1150.47 42.202 1149.79 50.7625 1153.87 57.0602C1160.05 66.591 1175.59 69.0725 1185.71 62.1497C1196.84 54.5403 1201.85 40.1845 1197.79 26.2813C1194.33 14.43 1186.5 6.10727 1174.69 2.7168C1155.05 -2.92119 1138 -0.393643 1124.34 16.2864C1118.67 23.213 1114.61 31.4706 1109.9 39.1643C1104.2 48.4613 1099.41 58.4447 1092.76 66.9899C1090.17 70.3151 1087.18 73.1994 1083.91 75.631C1083.91 75.6617 1083.91 75.6962 1083.91 75.7269C1073.19 83.7083 1060.2 86.6653 1045.15 83.8118C1025.24 80.0378 1013.59 62.9206 1017.28 43.4254C1020.23 27.919 1035.16 18.1772 1049.38 22.4881C1058.3 25.1882 1062.93 34.163 1059.36 42.34C1058.56 44.1772 1056.64 45.5272 1054.57 47.8514C1053.53 38.4893 1049.08 34.3164 1042.28 34.9109C1036.11 35.4517 1030.91 41.8989 1031.84 48.7144C1032.3 52.0204 1033.52 55.5528 1035.43 58.2721C1041.46 66.8979 1056.53 68.3975 1066.3 62.0883C1080.51 52.9064 1081.91 33.1888 1076.62 21.6099C1071.18 9.68187 1061.46 3.01215 1048.53 0.975568C1033.83 -1.34099 1020.38 0.737779 1009.12 11.5152C1001.78 18.5454 996.265 26.7224 991.836 35.8199C988.103 43.4829 984.313 51.1843 979.746 58.3603C975.698 64.7193 971.07 70.0966 965.828 74.3346C965.828 74.3346 961.135 78.0204 955.562 80.5173C955.086 80.7397 954.61 80.92 954.133 81.1271C953.419 81.4109 952.697 81.687 951.967 81.9095C951.51 82.0514 951.118 82.247 950.773 82.4771C939.927 86.2972 928.908 85.975 917.863 81.4953C899.862 74.1927 891.889 55.0427 899.355 37.634C905.074 24.3023 919.491 17.9049 931.566 23.3434C939.094 26.7339 942.535 34.7191 939.405 42.3093C938.625 44.204 936.705 45.6346 934.735 47.9512C933.363 39.1682 930.368 35.5668 924.968 35.0337C919.468 34.489 914.211 37.7452 912.567 43.1109C910.954 48.3807 911.845 53.4088 915.071 57.9384C921.703 67.2507 937.484 68.8692 947.535 61.2867C961.089 51.0616 963.462 30.0438 953.346 15.573C940.672 -2.55297 909.11 -3.55785 894.992 6.95873C885.349 14.1424 878.036 23.1286 872.928 33.9444C867.513 45.4121 862.094 56.8684 853.817 66.66C839.577 83.5088 817.582 89.423 798.129 81.6487C781 74.8026 772.674 57.4283 778.273 40.219C782.179 28.2258 792.906 20.6242 804.581 21.5753C816.245 22.5265 823.054 31.7237 819.463 41.9948C818.768 43.9777 816.879 45.5425 815.004 48.001C813.123 38.9802 810.108 35.4632 804.75 35.0298C796.147 34.3356 789.887 42.5356 792.115 51.5794C794.926 63.0011 808.629 69.2796 820.923 64.7769C836.627 59.0277 844.162 38.6887 836.927 22.024C827.037 -0.754217 797.265 -4.15618 780.036 4.16273C766.959 10.4796 758.901 21.7479 752.564 34.4353C748.693 42.1828 744.952 50.0414 740.417 57.4015C729.079 75.7959 713.122 86.5848 690.677 84.7247C670 83.0102 653.209 67.6534 657.207 43.924C659.042 33.0162 668.256 23.3818 678.664 21.7326C688.515 20.1716 697.46 24.8277 699.837 32.7593C701.723 39.0493 699.295 45.2894 694.399 46.5781C694.31 46.1984 694.191 45.8264 694.145 45.4467C693.362 39.0838 689.64 35.1947 684.102 34.9646C678.215 34.723 673.103 38.9687 672 45.0209C670.668 52.3426 674.505 60.0364 681.176 63.4115C690.685 68.2249 702.422 66.4299 710.149 58.9893C721.206 48.3385 722.285 28.9392 713.39 15.8875C700.924 -2.41106 669.692 -3.38907 655.816 6.33359C645.355 13.663 637.973 23.3626 632.366 34.6884C628.349 42.8041 624.335 50.9811 619.523 58.6288C608.124 76.7509 591.947 86.8072 569.964 84.6633C549.363 82.6535 533.663 67.7838 537.016 44.4571C538.659 33.0085 548.222 23.2322 559.264 21.6405C567.928 20.394 576.282 24.3828 579.166 31.1446C581.847 37.4307 579.907 44.4226 574.442 46.8811C574.239 46.0296 574.085 45.5425 574.008 45.0401C573.063 38.6465 569.353 35.0528 563.627 35.0029C557.908 34.9531 552.858 39.2602 551.871 45.0248C550.611 52.4002 554.302 60.278 561.081 63.4154C569.783 67.4387 578.375 67.0743 586.632 61.7776C601.211 52.427 602.052 29.8252 594.532 17.6556C582.815 -1.31799 554.878 -3.21264 540.096 3.98635C527.71 10.0194 519.764 20.5513 513.423 32.4256C508.465 41.7072 504.067 51.3531 498.379 60.1706C485.855 79.5776 465.684 88.2685 445.241 83.9729C422.558 79.2056 410.395 57.7313 419.013 37.657C424.386 25.1422 437.456 18.6681 449.415 22.5994C457.803 25.357 462.112 33.2578 459.405 41.6228C458.725 43.7245 456.732 45.4006 455.341 47.2723C454.228 46.0066 454.155 45.3623 454.043 44.7256C453.014 38.8613 449.63 35.421 444.503 35.0106C439.003 34.5734 433.892 38.0175 432.213 43.2873C429.94 50.4403 433.496 59.3 440.117 62.9666C449.254 68.0254 461.052 66.7828 468.941 59.9367C480.743 49.6924 482.671 29.6219 473.653 16.4282C462.423 0.00135147 439.491 -2.99024 423.488 2.63241C408.801 7.79482 400.133 19.7574 393.059 33.0201C387.609 43.2413 382.735 53.9343 376.01 63.2734C363.582 80.5403 346.28 87.9464 324.927 83.9001C305.017 80.1261 293.361 63.0088 297.056 43.5136C299.997 28.0073 314.93 18.2654 329.155 22.5764C338.069 25.2765 342.701 34.2474 339.133 42.4282C338.334 44.2654 336.414 45.6154 334.344 47.9396C333.303 38.5775 328.852 34.4046 322.054 34.9991C315.882 35.5399 310.682 41.9872 311.615 48.8026C312.068 52.1087 313.297 55.641 315.199 58.3603C321.232 66.986 336.306 68.4857 346.073 62.1765C360.283 52.9947 361.681 33.277 356.396 21.6981C350.95 9.77007 341.23 3.10034 328.303 1.06376C313.605 -1.2528 300.155 0.825974 288.894 11.6034C281.551 18.6336 276.036 26.8144 271.608 35.9081C267.875 43.5712 264.084 51.2726 259.514 58.4486C247.965 76.5975 231.777 86.9683 209.594 84.6326C187.568 82.3122 173.362 66.311 176.892 44.2922C179.399 28.6439 194.013 18.5492 208.377 22.3385C217.517 24.751 222.483 33.7718 219.053 42.2096C218.285 44.0927 216.403 45.5272 215.036 47.1687C213.976 45.8839 213.869 45.3738 213.819 44.8599C213.381 40.3073 211.077 37.0741 206.779 35.5284C202.627 34.0365 198.887 35.1755 195.611 37.9715C190.664 42.1981 189.988 50.7586 194.067 57.0563C200.242 66.5872 215.781 69.0686 225.905 62.1458C237.031 54.5364 242.039 40.1807 237.984 26.2775C234.527 14.4262 226.689 6.10347 214.883 2.713C195.242 -2.92499 178.193 -0.397504 164.536 16.2825C158.864 23.2092 154.808 31.4667 150.092 39.1605C144.396 48.4574 139.603 58.4409 132.951 66.9861C130.363 70.3113 127.375 73.1956 124.099 75.6272C124.103 75.6579 124.103 75.6924 124.107 75.723C113.376 83.7044 100.395 86.6615 85.3476 83.808C65.438 80.034 53.7819 62.9168 57.4765 43.4216C60.4184 27.9152 75.3506 18.1734 89.5761 22.4843C98.4901 25.1844 103.122 34.1592 99.5539 42.3362C98.7551 44.1733 96.8348 45.5233 94.7647 47.8476C93.7239 38.4854 89.2727 34.3126 82.4748 34.9071C76.303 35.4479 71.1029 41.8951 72.0361 48.7106C72.4893 52.0166 73.7183 55.549 75.6194 58.2683C81.6568 66.8941 96.7272 68.3937 106.494 62.0845C120.704 52.9026 122.102 33.185 116.817 21.606C111.371 9.67801 101.651 3.00829 88.7235 0.971705C74.0294 -1.34486 60.5759 0.733917 49.3153 11.5113C41.9721 18.5415 36.457 26.7186 32.0288 35.8161C28.2958 43.4791 24.5051 51.1805 19.9386 58.3565C15.8907 64.7155 11.2628 70.0927 6.02039 74.3308C6.02039 74.3308 3.52401 76.3099 0.00604248 78.3465M35.5622 85.2156C32.3476 85.1504 29.4825 82.1856 29.4902 78.9371C29.4979 76.0836 32.628 73.3183 35.7235 73.4333C38.746 73.5446 41.204 76.0797 41.2731 79.1595C41.3422 82.2355 38.4772 85.277 35.5622 85.2156ZM155.323 85.3191C152.262 85.4917 149.216 82.5385 149.093 79.2669C148.986 76.4633 151.605 73.7402 154.597 73.5407C157.739 73.3336 160.619 75.8688 160.773 78.9754C160.915 81.9747 158.184 85.1542 155.323 85.3191ZM275.141 85.2999C271.927 85.2347 269.062 82.27 269.069 79.0215C269.077 76.168 272.207 73.4027 275.303 73.5177C278.325 73.6289 280.783 76.1641 280.848 79.2439C280.918 82.3237 278.052 85.3613 275.141 85.2999ZM395.129 85.0315C391.903 85.0392 389.318 82.4848 389.237 79.217C389.164 76.2178 392.075 73.4448 395.24 73.4985C398.213 73.5484 400.867 76.1833 400.928 79.1365C400.993 82.3237 398.332 85.0277 395.129 85.0315ZM515.182 85.0276C511.925 85.0238 509.582 82.8262 509.452 79.6428C509.314 76.3406 511.768 73.6021 514.932 73.5292C518.297 73.4525 520.824 75.8419 520.904 79.1711C520.981 82.4541 518.469 85.0276 515.182 85.0276ZM635.158 85.1312C631.909 85.0315 629.109 82.0246 629.286 78.8259C629.439 76.0529 632.312 73.487 635.231 73.5062C638.411 73.5254 640.992 76.1641 640.972 79.3743C640.961 82.5768 638.28 85.2271 635.158 85.1312ZM755.33 85.0506C751.892 85.0008 749.338 82.339 749.438 78.9179C749.523 76.0682 752.265 73.5101 755.245 73.5024C758.344 73.4947 761.156 76.2561 761.171 79.3168C761.183 82.4081 758.444 85.0967 755.33 85.0506ZM875.448 85.0584C872.221 85.0967 869.652 82.5577 869.591 79.2592C869.537 76.26 872.026 73.6941 875.11 73.5714C878.332 73.4448 881.124 75.9954 881.231 79.1634C881.343 82.2815 878.654 85.02 875.448 85.0584ZM995.362 85.2156C992.147 85.1504 989.282 82.1856 989.29 78.9371C989.298 76.0836 992.428 73.3183 995.523 73.4333C998.546 73.5446 1001 76.0797 1001.07 79.1595C1001.14 82.2355 998.273 85.277 995.362 85.2156ZM1115.12 85.3191C1112.06 85.4917 1109.01 82.5385 1108.89 79.2669C1108.78 76.4633 1111.4 73.7402 1114.39 73.5407C1117.53 73.3336 1120.41 75.8688 1120.57 78.9754C1120.71 81.9747 1117.98 85.1542 1115.12 85.3191ZM1234.94 85.2999C1231.72 85.2347 1228.86 82.27 1228.86 79.0215C1228.87 76.168 1232 73.4027 1235.1 73.5177C1238.12 73.6289 1240.58 76.1641 1240.65 79.2439C1240.72 82.3237 1237.85 85.3613 1234.94 85.2999ZM1354.92 85.0315C1351.7 85.0392 1349.11 82.4848 1349.03 79.217C1348.96 76.2178 1351.87 73.4448 1355.04 73.4985C1358.01 73.5484 1360.66 76.1833 1360.72 79.1365C1360.79 82.3237 1358.13 85.0277 1354.92 85.0315ZM1474.98 85.0276C1471.72 85.0238 1469.38 82.8262 1469.25 79.6428C1469.11 76.3406 1471.56 73.6021 1474.73 73.5292C1478.09 73.4525 1480.62 75.8419 1480.7 79.1711C1480.78 82.4541 1478.26 85.0276 1474.98 85.0276ZM1594.96 85.1312C1591.71 85.0315 1588.9 82.0246 1589.08 78.8259C1589.24 76.0529 1592.11 73.487 1595.03 73.5062C1598.21 73.5254 1600.79 76.1641 1600.77 79.3743C1600.76 82.5768 1598.08 85.2271 1594.96 85.1312ZM1715.12 85.0506C1711.69 85.0008 1709.13 82.339 1709.23 78.9179C1709.32 76.0682 1712.06 73.5101 1715.04 73.5024C1718.14 73.4947 1720.95 76.2561 1720.97 79.3168C1720.98 82.4081 1718.24 85.0967 1715.12 85.0506ZM1835.24 85.0584C1832.02 85.0967 1829.45 82.5577 1829.39 79.2592C1829.33 76.26 1831.82 73.6941 1834.9 73.5714C1838.13 73.4448 1840.92 75.9954 1841.03 79.1634C1841.14 82.2815 1838.45 85.02 1835.24 85.0584Z" fill="url(#paint0_linear_279_3007)"/>
<defs>
<linearGradient id="paint0_linear_279_3007" x1="960.003" y1="0.00213623" x2="960.003" y2="87.0021" gradientUnits="userSpaceOnUse">
<stop stop-color="#F5B46B"/>
<stop offset="1" stop-color="#FDD5A5"/>
</linearGradient>
</defs>
</svg>
